<?xml version="1.0" encoding="UTF-8"?>
<svg width="248px" height="54px" viewBox="0 0 248 54" version="1.1" xmlns="http://www.w3.org/2000/svg" xmlns:xlink="http://www.w3.org/1999/xlink">
    <!-- Generator: sketchtool 56.2 (101010) - https://sketch.com -->
    <title>85700D7F-E71C-46B4-AC2D-CC0DA36EDD4E</title>
    <desc>Created with sketchtool.</desc>
    <g id="Anasayfa" stroke="none" stroke-width="1" fill="none" fill-rule="evenodd">
        <g id="Desktop---1360px---AlexMak" transform="translate(-160.000000, -34.000000)">
            <g id="Group-Copy" transform="translate(160.000000, 34.000000)">
                <path d="M31.4651372,23.097615 C31.1173706,23.3252598 30.8604822,23.6449602 30.5505065,23.9106969 C31.9784642,24.9301103 32.2812416,27.7443803 31.3036259,29.3850553 C31.1349164,29.6680242 30.7552074,29.9686785 30.7655549,30.0893031 C30.7893992,30.3545863 31.5969556,30.7686096 31.7341727,30.902385 C33.6250695,29.2077463 33.5679332,24.5165404 31.4651372,23.097615 M23.7220433,22.9348173 C22.5694196,24.0195311 21.7740103,25.7037398 21.9472188,27.7049279 C22.0736385,29.1614918 22.814161,30.2144624 23.560532,31.1191463 C23.9847803,30.9690459 24.1368439,30.5441392 24.5287,30.3604815 C23.7782798,29.5179237 23.0359578,28.2187159 23.1835224,26.6206676 C23.2950957,25.4194105 23.9190961,24.4412635 24.6357743,23.8562798 C24.3977813,23.4817089 24.0927545,23.1742524 23.7220433,22.9348173 M36.7347241,27.4337495 C36.8593442,24.5759458 35.5843498,22.2283022 34.2076798,20.7127864 C34.1532429,20.7127864 34.1433452,20.6687993 34.1001556,20.6583694 C33.8167235,20.9508612 33.4212683,21.1304375 33.239062,21.5258683 C34.5221544,22.9856065 35.5038191,24.6335372 35.4984204,27.1086074 C35.4939215,28.812769 34.9050127,30.4289564 34.2076798,31.4987055 C33.9948808,31.824301 33.3339892,32.4165403 33.347486,32.5829658 C33.3677312,32.8396331 34.1635904,33.2314361 34.261217,33.3955943 C35.5362114,31.9821106 36.6213512,30.02627 36.7347241,27.4337495 M21.1405621,20.441608 C19.6073297,22.0047386 18.2599027,24.3782304 18.3444824,27.3253688 C18.4173649,29.912901 19.534897,32.1176998 21.0330379,33.558392 C21.2759797,33.2250874 21.666936,33.0409763 21.8936816,32.6913465 C20.8134905,31.536344 19.7827876,29.950086 19.6343232,27.8672722 C19.4233238,24.8960996 20.6371328,22.7126142 22.0542931,21.2546899 C21.7353196,20.9975692 21.5121731,20.6452186 21.1405621,20.441608 M40.6600331,27.1086074 C40.6775789,23.1479508 38.9945324,20.1894755 37.1117337,18.0567794 C37.0572967,18.0567794 37.0473991,18.0127922 37.0037596,18.0028158 C36.6424962,18.2164028 36.4076525,18.558777 36.0895787,18.8158977 C37.8657529,20.6973683 39.4313776,23.5016619 39.4232796,27.1086074 C39.4156314,30.6257648 37.932337,33.3670253 36.1971029,35.2385194 C36.4341961,35.6135438 36.739223,35.9210003 37.1117337,36.1604355 C38.9859844,34.0077864 40.6429372,31.0647293 40.6600331,27.1086074 M18.3444824,17.6772202 C16.2592322,19.8307762 14.4907062,22.8332387 14.4182735,26.9458097 C14.3507897,30.8067016 16.0167404,34.0907725 18.128984,36.2143991 C18.420964,35.9668014 18.6459101,35.6511823 18.9896277,35.4552808 C17.4392994,33.5670081 15.8894209,31.2502008 15.709464,27.9756529 C15.4728207,23.6739826 17.2098544,20.6325212 19.2582134,18.4903021 C18.9005491,18.2721803 18.6670551,17.9298062 18.3444824,17.6772202 M39.6923151,38.7077714 C39.8556259,38.7008062 40.3689529,37.9190142 40.6060461,37.623348 C42.7142407,35.004526 44.2326267,31.5984701 44.3167566,27.2169881 C44.4197819,21.8754981 42.0394025,18.2059729 39.7993894,15.5635701 C39.7458523,15.5635701 39.7364045,15.5195829 39.6923151,15.509153 C39.4084331,15.8016448 39.0129779,15.9816747 38.8321213,16.3761985 C41.2777351,19.0630419 43.3247444,22.893551 43.026016,28.1924143 C42.7916222,32.347612 40.8953267,35.5060701 38.8321213,37.7861458 C39.0858605,37.987489 39.3962861,38.7203057 39.6923151,38.7077714 M10.7619612,27.1086074 C10.7718976,31.6243182 12.4113046,35.0412575 14.4727105,37.623348 C14.691808,37.8981543 15.233928,38.7144105 15.4404285,38.7076506 C15.5407545,38.704434 16.3006223,37.8228773 16.3006223,37.8405629 C16.2997225,37.744426 15.6680739,37.1376756 15.4939657,36.9191003 C13.7024951,34.659431 12.2349469,31.7653492 12.0531905,28.0840336 C11.8017008,23.0037456 13.5072419,19.7287442 15.655477,17.0808997 C15.7661504,16.9439501 16.6362419,16.1063805 16.623195,15.9426758 C16.6011503,15.6606139 15.9105658,15.4946418 15.7630012,15.1840109 C13.1900679,17.4740631 10.7507527,22.0047386 10.7619612,27.1086074 M38.5630858,11.2274356 C38.5648854,11.2401329 39.2433227,11.7775016 39.3697424,11.8777198 C41.4127027,13.5061509 42.9076943,15.2420558 44.2087825,17.5148759 C45.645738,20.0225964 46.7367265,22.912597 46.7367265,26.9458097 C46.7367265,34.6558032 43.1861776,39.2794412 38.7241472,42.8809451 C38.9427948,43.2024593 39.196084,43.4904164 39.3697424,43.8568247 C44.0306252,40.3206214 48.0274671,35.1559868 48.0274671,27.1086074 C48.0274671,18.9986484 43.9856359,13.8199561 39.3153055,10.251556 C39.1897856,10.5318039 38.5212458,10.959885 38.5630858,11.2274356 M16.085124,10.0887582 C15.8367835,9.93639037 14.5055526,11.2424003 14.1496879,11.5525777 C10.2261784,14.9708774 7.05938753,20.1894755 7.05127665,27.0541903 C7.04274152,35.3242263 11.3095187,40.6226362 15.9236127,44.0196225 C16.1256143,43.6441446 16.4175943,43.3607223 16.623195,42.9897792 C12.0873823,39.6150132 8.34247996,34.7723464 8.34247996,26.9997733 C8.34247996,19.256676 12.2241495,14.4521012 16.7311691,11.1186015 C16.5368157,10.7440306 16.3127694,10.2279752 16.085124,10.0887582 M40.6600331,8.30070359 C45.8063495,12.2336982 50.3394629,17.9901184 50.3394629,26.9997733 C50.3394629,36.1468312 45.9269206,41.7436281 40.7680072,45.8625477 C41.0482901,46.1582138 41.1976543,46.5849344 41.5211267,46.8379738 C46.8995874,42.5372105 51.5757665,36.7073271 51.5757665,27.1086074 C51.5757665,17.5475262 46.9661715,11.584321 41.4671397,7.37878753 C41.4639904,7.34613728 41.4585917,7.31484746 41.4127027,7.32482393 C41.1090255,7.59600238 40.9182712,7.98281714 40.6600331,8.30070359 M6.67517963,15.0212132 C4.7896816,18.2617504 3.50254014,22.1992797 3.50254014,26.9997733 C3.50254014,36.5354599 8.09863841,42.7195077 13.8271152,46.9463545 C14.028217,46.5708767 14.3210968,46.2874544 14.5266975,45.9165113 C9.14823681,41.9191231 4.73974357,36.1264248 4.73974357,26.9458097 C4.73974357,17.8168907 9.46091186,12.002879 14.687309,8.13790582 C14.5451431,7.7207082 14.257662,7.45089017 14.0421637,7.10806255 C11.158355,8.8915824 8.52603596,11.8400813 6.67517963,15.0212132 M42.7034433,5.48189876 C48.6438193,10.0352481 53.801383,16.711317 53.8351249,27.0541903 C53.8517709,32.2650794 52.4202141,36.5916908 50.4465372,40.0625937 C48.4382186,43.5965297 45.8009508,46.4429965 42.7574304,48.7348626 C43.0084702,49.0418656 43.1888769,49.4200644 43.4565628,49.7107423 C46.6867885,47.393935 49.4239323,44.3719731 51.5222293,40.7128778 C53.5984817,37.0927815 55.0714286,32.5553038 55.0714286,27.1086074 C55.0714286,21.6197378 53.5606907,17.243244 51.5222293,13.5578472 C49.4689215,9.84388133 46.7367265,6.78881567 43.4565628,4.5060191 C43.2194696,4.62891101 42.9301889,5.16809359 42.7034433,5.48189876 M3.66405143,13.2871222 C1.52256476,17.0151457 0.137796704,21.4469636 0.00687808651,26.9458097 C-0.120441394,32.3362751 1.53696131,37.0460735 3.55607731,40.7128778 C5.63682853,44.4916907 8.45135386,47.4057254 11.784155,49.7647059 C12.0153995,49.4196109 12.2893838,49.1175961 12.4828375,48.7348626 C6.31166677,44.0967134 1.29761868,37.5158743 1.29761868,26.8918461 C1.29761868,21.5653207 2.78271269,17.3829145 4.79328074,13.8829892 C6.82904275,10.3386233 9.51264946,7.44544846 12.6978859,5.26513739 C12.5759652,4.82798683 12.2727378,4.57358698 12.0531905,4.23529412 C8.76582848,6.3743389 5.77809467,9.60444617 3.66405143,13.2871222" id="Fill-356" fill="#1A1919"></path>
                <path d="M12.0630942,4.23529412 C12.2828293,4.57358698 12.5863159,4.82844031 12.7087912,5.26513739 C9.52083102,7.44544846 6.83492953,10.3386233 4.79697645,13.8829892 C2.78513943,17.383368 1.2987755,21.5653207 1.2987755,26.8918461 C1.2987755,37.5163278 6.31666086,44.0967134 12.4931086,48.7348626 C12.2994895,49.1180496 12.0252709,49.4200644 11.7938286,49.7647059 C8.45817762,47.4061789 5.64124557,44.4916907 3.55871508,40.7128778 C1.53787252,37.0460735 -0.120947445,32.3362751 0.00693118416,26.9458097 C0.137961751,21.447417 1.52391394,17.0151457 3.6672318,13.2871222 C5.78308278,9.60444617 8.77292115,6.3743389 12.0630942,4.23529412" id="Fill-358" fill="#1A1919"></path>
                <path d="M43.1365376,5.29411765 C46.5072104,7.53939498 49.3143323,10.5452918 51.4247591,14.198942 C53.5194674,17.824041 55.0714286,22.1294596 55.0714286,27.5291887 C55.0714286,32.8878756 53.5583011,37.3516636 51.4247591,40.9129688 C49.268564,44.5121934 46.4558945,47.4855241 43.1365376,49.7647059 C42.8610032,49.4783025 42.6760808,49.1062459 42.4176518,48.8046747 C45.545614,46.5500291 48.2551893,43.7493434 50.3193855,40.2732454 C52.3475218,36.8582647 53.8181171,32.6019184 53.8010118,27.4761015 C53.7668011,17.3011988 48.4664631,10.7331046 42.3626374,6.2541488 C42.5956396,5.94499379 42.8929023,5.41501376 43.1365376,5.29411765" id="Fill-360" fill="#1A1919"></path>
                <path d="M14.1549857,7.41176471 C14.3794334,7.74889703 14.6783846,8.0146786 14.8269231,8.4244995 C9.38301236,12.2252651 4.46578056,17.9426904 4.46578056,26.9199534 C4.46578056,35.9484997 9.05735235,41.6449657 14.659173,45.5755005 C14.445034,45.9402812 14.1404599,46.2189951 13.9305381,46.5882353 C7.96463418,42.4316078 3.1771978,36.3507396 3.1771978,26.9734664 C3.1771978,22.2522761 4.51826102,18.3806057 6.48206114,15.1934566 C8.40931237,12.0651718 11.1514165,9.16565548 14.1549857,7.41176471" id="Fill-362" fill="#1A1919"></path>
                <path d="M42.0342326,7.413634 C42.0787532,7.40374302 42.0835545,7.43476475 42.0870463,7.46758484 C47.4220953,11.6370853 51.8942308,17.5487482 51.8942308,27.0279101 C51.8942308,36.544388 47.3570603,42.3243209 42.1389869,46.5882353 C41.8251605,46.3373639 41.6802504,45.9142994 41.4083257,45.6211666 C46.4133987,41.5375379 50.6947941,35.9891439 50.6947941,26.920458 C50.6947941,17.9879979 46.2968595,12.280449 41.3035714,8.38115233 C41.5541088,8.06598953 41.7391747,7.682489 42.0342326,7.413634" id="Fill-364" fill="#1A1919"></path>
                <path d="M16.9450549,11.6285431 C12.5070843,14.9561133 8.6848832,19.7516893 8.6848832,27.481466 C8.6848832,35.2397609 12.3724124,40.0738137 16.838735,43.4425768 C16.6362842,43.8133128 16.3487774,44.0962309 16.1498705,44.4705882 C11.606466,41.0796444 7.40505717,35.7911118 7.41346154,27.5357863 C7.42144816,20.6832822 10.5397228,15.4735141 14.4031229,12.0617474 C14.7535356,11.7516691 16.0643716,10.4484349 16.3089074,10.6005317 C16.5330653,10.7395011 16.7536791,11.2546385 16.9450549,11.6285431" id="Fill-366" fill="#1A1919"></path>
                <path d="M38.885715,10.5882353 C43.5882581,14.0736259 47.657967,19.1318493 47.657967,27.0531512 C47.657967,34.9133292 43.6331047,39.9582649 38.9405274,43.4117647 C38.7652182,43.0538799 38.5106349,42.7730643 38.2904793,42.4590293 C42.7832857,38.9408621 46.3583238,34.424781 46.3583238,26.8941405 C46.3583238,22.95475 45.2593574,20.1319779 43.8129438,17.682593 C42.5024287,15.4626441 40.9975786,13.7671205 38.9405274,12.1765706 C38.8132357,12.0786838 38.130119,11.5538156 38.128307,11.5414137 C38.0857254,11.2805298 38.7593293,10.861964 38.885715,10.5882353" id="Fill-368" fill="#1A1919"></path>
                <path d="M16.0122793,15.8823529 C16.1722682,16.1899529 16.9209966,16.3538566 16.9448974,16.6336154 C16.9590428,16.7952738 16.0161815,17.6246711 15.8961898,17.7607336 C13.5665956,20.3822938 11.7174557,23.6257898 11.9901197,28.6565091 C12.1871792,32.3019057 13.7782882,35.1677497 15.7205922,37.4053713 C15.9093596,37.6218139 16.5941901,38.2226442 16.5951656,38.317394 C16.5951656,38.3003301 15.7713204,39.1728363 15.6625475,39.1764706 C15.4386606,39.1831645 14.8508966,38.3748726 14.6138399,38.1027476 C12.3788732,35.5458507 10.600948,32.1622508 10.5906593,27.6901511 C10.5780227,22.6365303 13.222717,18.1496119 16.0122793,15.8823529" id="Fill-370" fill="#1A1919"></path>
                <path d="M39.1854396,38.2510511 C41.17626,35.9615892 43.0060262,32.790129 43.2321966,28.6178261 C43.5204445,23.2971495 41.545252,19.4504164 39.1854396,16.7529677 C39.3599511,16.3568198 39.7415322,16.1760488 40.0154545,15.8823529 C40.0579971,15.8923705 40.0671134,15.936994 40.1187723,15.936994 C42.2801972,18.5902745 44.577064,22.2749057 44.4776532,27.6383845 C44.3964749,32.0379033 42.9313596,35.4579804 40.8971284,38.0875831 C40.6683533,38.3840111 40.1730358,39.1694768 40.0154545,39.1764706 C39.7298113,39.1890565 39.4302766,38.4532231 39.1854396,38.2510511" id="Fill-372" fill="#1A1919"></path>
                <path d="M19.0631868,18.7895393 C16.8230142,20.8697311 14.9233203,23.8231279 15.1816314,28.0002446 C15.3789319,31.179979 17.073945,33.4297037 18.7689581,35.2633021 C18.3935459,35.453091 18.1475353,35.7600117 17.8282136,36 C15.5181739,33.9383027 13.6962194,30.7493211 13.7700225,27.0002202 C13.8487459,23.0067275 15.7833734,20.0912004 18.0638917,18 C18.4166709,18.2448321 18.6720299,18.5777332 19.0631868,18.7895393" id="Fill-374" fill="#1A1919"></path>
                <path d="M36.955305,36 C36.6100085,35.7626433 36.3272657,35.4578557 36.1074937,35.0865363 C37.7159582,33.2312879 39.0908889,30.5133738 39.0983953,27.0267476 C39.1054848,23.4511126 37.6542385,20.6711621 36.0082418,18.8060238 C36.3030783,18.5511351 36.5203482,18.2121825 36.8552191,18 C36.8956705,18.0098899 36.904845,18.0539447 36.955305,18.0534952 C38.7009707,20.1676781 40.2606434,23.1009216 40.2443794,27.0267476 C40.2289495,30.9485278 38.6926302,33.8660373 36.955305,36" id="Fill-376" fill="#1A1919"></path>
                <path d="M22.2403846,21.9640815 C20.6237644,23.3763343 19.2391164,25.491419 19.4798132,28.3695155 C19.6491734,30.3870822 20.8249438,31.9236484 22.0571677,33.0424689 C21.7985084,33.381146 21.3525266,33.5594896 21.0753917,33.8823529 C19.3663932,32.4867924 18.0915727,30.3510621 18.0084322,27.8445879 C17.9119483,24.9897727 19.4490204,22.690634 21.1980495,21.1764706 C21.6219632,21.3737028 21.8765168,21.7150155 22.2403846,21.9640815" id="Fill-378" fill="#1A1919"></path>
                <path d="M34.8166171,33.8823529 C34.7280869,33.7181463 34.0063823,33.3277598 33.9880235,33.0717242 C33.9757843,32.9052558 34.5750969,32.3149262 34.7680683,31.9901319 C35.4008347,30.9230151 35.9344637,29.3108047 35.9385434,27.6103842 C35.9434391,25.1418567 35.0532416,23.4979811 33.8901099,22.0413825 C34.0549311,21.6473772 34.4135395,21.4677903 34.6709706,21.1764706 C34.7097281,21.1868749 34.7187035,21.2303014 34.7680683,21.2303014 C36.0164663,22.7420879 37.1726624,25.0839546 37.0596539,27.9347262 C36.9568446,30.5208672 35.9728132,32.4718951 34.8166171,33.8823529" id="Fill-380" fill="#1A1919"></path>
                <path d="M24.3585165,24.2477569 C23.5185597,24.8531677 22.7882082,25.8654708 22.6569979,27.1086748 C22.4841586,28.7625255 23.3541515,30.1071006 24.2331026,30.9790798 C23.77413,31.1691506 23.5960212,31.6093641 23.0985812,31.7647059 C22.2248997,30.8279618 21.3575415,29.7382224 21.2089419,28.2307966 C21.0065934,26.1597286 21.9377124,24.4167088 23.2882829,23.2941176 C23.7224889,23.5419137 24.0797604,23.8601063 24.3585165,24.2477569" id="Fill-382" fill="#1A1919"></path>
                <path d="M31.6963897,30.7058824 C31.5823795,30.5788432 30.9114019,30.1856679 30.8919641,29.9337428 C30.8829928,29.8187616 31.1984831,29.5336772 31.3386595,29.2649571 C32.1513088,27.7068974 31.8993651,25.0339079 30.7129121,24.0662572 C30.9708367,23.8134709 31.1839048,23.5102995 31.4728551,23.2941176 C33.2200137,24.6411631 33.2674867,29.0961458 31.6963897,30.7058824" id="Fill-384" fill="#1A1919"></path>
                <path d="M29.6538462,27.5292092 C29.6538462,28.6989494 28.7053382,29.6470588 27.5351063,29.6470588 C26.3660904,29.6470588 25.4175824,28.6989494 25.4175824,27.5292092 C25.4175824,26.3598742 26.3660904,25.4117647 27.5351063,25.4117647 C28.7053382,25.4117647 29.6538462,26.3598742 29.6538462,27.5292092" id="Fill-386" fill="#1A1919"></path>
                <path d="M20.7070504,4.08894743 C20.1583639,3.42882018 19.871594,3.10574841 19.2741566,2.47407077 C19.1986405,3.34057819 19.1742651,3.77262641 19.1518014,4.63190088 C19.7678788,4.39273133 20.0795022,4.28471928 20.7070504,4.08894743 M23.2994505,5.59388325 C22.8286699,5.69418015 22.5944745,5.75107936 22.1289513,5.87741489 C21.8187618,5.45790378 21.6591265,5.25104141 21.330775,4.84117424 C20.4408323,5.10300703 20.0011184,5.25586338 19.1350732,5.60690256 C19.1350732,6.13056814 19.1408086,6.39143654 19.1604045,6.91124456 C18.7226024,7.09930126 18.5060911,7.19959817 18.0754583,7.41176471 C17.9488016,5.4550106 17.9913391,3.48861257 18.1987694,1.53860922 C18.745544,1.33174685 19.0213211,1.23578971 19.5747871,1.05882353 C20.9479371,2.45381851 22.1977761,3.97225583 23.2994505,5.59388325" id="Fill-388" fill="#1A1919"></path>
                <path d="M24.1421116,5.29411765 C23.8049621,3.26001493 23.6366,2.24319851 23.2994505,0.20862592 C23.7760515,0.112300889 24.0149897,0.0704817296 24.4941415,0 C24.6994923,1.70142895 24.80153,2.55284825 25.0056053,4.25474708 C26.0106763,4.10673544 26.5170383,4.06726567 27.5284866,4.05551872 C27.5310376,4.40698761 27.5327382,4.58272206 27.5357143,4.93372107 C26.172236,4.94969693 25.4890088,5.02158829 24.1421116,5.29411765" id="Fill-390" fill="#1A1919"></path>
                <path d="M27.5357143,4.85100923 C27.5899004,2.91016812 27.6172421,1.94040369 27.6714282,0 C29.7483985,0.045054459 30.7893693,0.149598301 32.831044,0.523156631 C32.7554816,0.845099173 32.7186947,1.00563302 32.641641,1.32713814 C31.2039679,1.06381014 30.4746918,0.974576065 29.0156426,0.879655506 C28.9793528,1.30876642 28.9609593,1.52354059 28.9251666,1.95221408 C30.2231488,2.03663652 30.8718913,2.1140602 32.1534684,2.33758281 C32.0818831,2.6586505 32.044599,2.81874693 31.9730136,3.13981463 C30.7361773,2.9237282 30.1107995,2.84936647 28.8570611,2.76800599 C28.8133145,3.29466199 28.790944,3.55799 28.7467003,4.08508343 C30.0590989,4.1703807 30.7152983,4.2521786 32.0088063,4.49451035 C31.9322497,4.81426579 31.8934743,4.97436221 31.8154264,5.29411765 C30.1222333,4.97698675 29.2582375,4.88819009 27.5357143,4.85100923" id="Fill-392" fill="#1A1919"></path>
                <path d="M32.831044,5.81741782 C33.7235691,4.97068495 34.2083814,4.56932023 35.2507497,3.82970685 C34.8669944,2.71406406 34.6387449,2.15757611 34.1099379,1.05882353 C34.6762057,1.19661208 34.958904,1.27439594 35.5195091,1.44640939 C35.8165819,2.19935715 35.9481303,2.57760895 36.1820424,3.3350015 C36.8227962,2.89452262 37.1555874,2.68472844 37.8455629,2.28914195 C38.3865664,2.51582634 38.6544546,2.63761364 39.1854396,2.89763397 C38.0733768,3.41545224 37.5450054,3.70614163 36.5479385,4.33863553 C36.9086075,5.57028739 37.0458186,6.18811347 37.2326869,7.41176471 C36.7879489,7.18908063 36.562313,7.0850725 36.107992,6.89172404 C35.9507438,6.08588326 35.8544783,5.68140719 35.6223085,4.87423296 C34.9427872,5.3520481 34.6187078,5.60406781 34.0023471,6.13077566 C33.5371363,5.99076471 33.302353,5.92809314 32.831044,5.81741782" id="Fill-394" fill="#1A1919"></path>
                <path d="M16.9450549,50.470432 C17.503798,49.3410827 17.7824876,48.7764081 18.3407761,47.6470588 C18.5726386,47.7684287 18.6881152,47.8279422 18.9227054,47.9418143 C18.8295058,48.8884058 18.7972269,49.3663877 18.7654027,50.3279747 C18.75631,50.5519701 18.7458535,50.829387 18.7458535,50.829387 C18.7522183,50.8317301 18.9499834,50.6082033 19.1109232,50.4348177 C19.7510455,49.752522 20.0574676,49.402002 20.6416701,48.684092 C20.8571659,48.7660987 20.9649137,48.8054619 21.1813187,48.8809081 C20.7871525,50.0819546 20.591206,50.6813064 20.1965851,51.8823529 C20.0192785,51.8200279 19.9301706,51.788631 19.7537733,51.7234943 C20.1024762,50.7248871 20.2766004,50.2258178 20.6248488,49.2276792 C19.916077,50.092264 19.5423693,50.5130755 18.7540369,51.3261133 C18.5903692,51.2572277 18.5085354,51.2220819 18.3471409,51.1494474 C18.3685087,49.9835466 18.4012422,49.4052823 18.5130817,48.2614061 C18.0557216,49.2323653 17.8274962,49.7178449 17.3705908,50.6888041 C17.2001037,50.6030486 17.1146328,50.5594679 16.9450549,50.470432" id="Fill-396" fill="#1A1919"></path>
                <path d="M21.4113171,51.3246823 C21.8455008,51.4406925 22.0638978,51.4929608 22.502432,51.5872988 C22.437609,51.2473421 22.4071552,51.0773638 22.3527735,50.737832 C22.3110083,50.4798898 22.2788144,50.1072086 22.2788144,50.1072086 C22.2727236,50.1059374 22.0952217,50.4407948 21.9781922,50.5992996 C21.7563148,50.8916624 21.6432008,51.0369939 21.4113171,51.3246823 M20.1222527,52.1817982 C20.9967109,51.248192 21.402181,50.7629038 22.1513436,49.7647059 C22.3197094,49.8072005 22.4045449,49.8280228 22.5737808,49.8666929 C22.7904376,51.0973362 22.9357456,51.7143577 23.2994505,52.9411765 C23.0919299,52.9067559 22.9883871,52.8880582 22.7817365,52.8489632 C22.6899402,52.4767106 22.64774,52.2901594 22.5685602,51.9179067 C22.0195223,51.8040212 21.7463085,51.7385796 21.2037965,51.5902735 C20.965387,51.8860358 20.8435719,52.0330671 20.5938511,52.3237301 C20.4050377,52.2689121 20.3110661,52.2404407 20.1222527,52.1817982" id="Fill-398" fill="#1A1919"></path>
                <path d="M25.9942633,52.9349961 C26.1858693,52.9844635 26.2821538,53.0089703 26.4766484,53.0552609 C26.3649584,53.3851947 26.1670939,53.6343469 25.8835362,53.7963639 C25.6004599,53.9588348 25.2543173,54.0250938 24.853774,53.9915105 C24.4397509,53.9570195 24.1119023,53.8521849 23.8740798,53.6869911 C23.6362572,53.5222511 23.4725736,53.3021439 23.3830291,53.0307541 C23.293966,52.7593642 23.2775976,52.4793516 23.3267027,52.1898086 C23.3811034,51.8743973 23.4976076,51.6102687 23.6728453,51.3942461 C23.8476015,51.1786772 24.0656858,51.0266444 24.3290238,50.9336094 C24.5923617,50.8401206 24.8677353,50.8065373 25.1618842,50.8314979 C25.4959913,50.8596353 25.7704019,50.9540317 25.9923376,51.1214947 C26.2152361,51.2889577 26.3692912,51.5131493 26.4540215,51.7990617 C26.2705996,51.8312836 26.178648,51.8476214 25.9942633,51.8762126 C25.9244571,51.6497519 25.8185442,51.4813813 25.6745989,51.3701931 C25.5306537,51.2594588 25.3462689,51.1954689 25.1200005,51.176408 C24.8585882,51.1541704 24.6356897,51.1882076 24.445528,51.2807888 C24.2548847,51.3733699 24.1090138,51.508611 24.0093594,51.6878735 C23.909705,51.8675899 23.8437502,52.0563828 23.813902,52.2569753 C23.7753882,52.5152041 23.7854981,52.7471109 23.8495272,52.951334 C23.9135564,53.156011 24.0377633,53.318028 24.2216666,53.4355697 C24.4060513,53.5526577 24.6149886,53.6220935 24.8460713,53.642062 C25.126259,53.6656611 25.3698586,53.6171014 25.572056,53.4972905 C25.7742533,53.3783873 25.9133843,53.1900481 25.9942633,52.9349961" id="Fill-400" fill="#1A1919"></path>
                <path d="M27.5357143,53.9997266 C27.5387634,52.784095 27.5407962,52.1758296 27.5448617,50.9601981 C27.7323834,50.9606476 27.8263984,50.9601981 28.0139202,50.9570511 C28.0230676,51.456521 28.0281495,51.7060312 28.037805,52.2055011 C28.8178752,52.1938123 29.2081644,52.1740314 29.9862018,52.1092936 C29.9338583,51.6120715 29.9069243,51.36391 29.8535644,50.8666879 C30.0400698,50.8509531 30.1330684,50.8424113 30.320082,50.8235294 C30.4766042,52.0315183 30.5548653,52.635288 30.7129121,53.8432769 C30.4984563,53.8648562 30.3912284,53.8747467 30.177789,53.8927294 C30.1162982,53.3217782 30.0858068,53.0363026 30.0238078,52.4662505 C29.234082,52.532337 28.8382028,52.5516684 28.0449197,52.5638067 C28.0555917,53.1365562 28.0606736,53.4238301 28.0718537,53.99613 C27.8573979,53.999277 27.7501701,54.0006257 27.5357143,53.9997266" id="Fill-402" fill="#1A1919"></path>
                <path d="M31.2344879,52.9411765 C31.0260629,51.6981087 30.9218504,51.0765748 30.7129121,49.8330421 C30.9018293,49.8074741 30.9947479,49.7939928 31.182125,49.7647059 C31.4177582,51.0040547 31.5363448,51.6237291 31.771978,52.8626131 C31.5573927,52.8960839 31.4490733,52.9118895 31.2344879,52.9411765" id="Fill-404" fill="#1A1919"></path>
                <path d="M32.3556228,52.9411765 C32.1220801,51.8988909 32.0055207,51.3767637 31.771978,50.3340844 C31.930075,50.3037648 32.0089115,50.2876206 32.1661608,50.2541509 C32.9765666,50.9396889 33.4144062,51.2649356 34.3515439,51.8681775 C34.0815499,51.0704176 33.9467648,50.6711439 33.6767708,49.8733839 C33.8217284,49.8312515 33.8937833,49.8095946 34.0378931,49.7647059 C34.4019823,50.7743093 34.5850866,51.2795047 34.9491758,52.2895019 C34.7728532,52.3438409 34.6842681,52.3710104 34.5070977,52.4221994 C33.5517344,51.8225013 33.1049939,51.4992234 32.2767863,50.816048 C32.4772685,51.6323147 32.5772976,52.0398574 32.7769321,52.8557303 C32.6090866,52.8911688 32.5243161,52.9088881 32.3556228,52.9411765" id="Fill-406" fill="#1A1919"></path>
                <path d="M35.8974077,51.8823529 C35.5180348,50.6049059 35.3285487,49.9659303 34.9491758,48.6879789 C35.7175361,48.3263802 36.096909,48.1185997 36.8380281,47.6470588 C36.8957152,47.7907905 36.9241582,47.8618999 36.9818453,48.0056316 C36.3661155,48.3974896 36.0524418,48.5745065 35.4178836,48.8922292 C35.5396675,49.280557 35.6009601,49.4747209 35.7235452,49.8630486 C36.3440822,49.5528907 36.6509456,49.380917 37.2542567,49.0026757 C37.3103414,49.1464074 37.3387843,49.2170125 37.3956702,49.3607442 C36.782344,49.744533 36.471074,49.920037 35.8401212,50.2347338 C35.9763269,50.6664332 36.0452309,50.8822829 36.1806354,51.3139823 C36.9129413,50.948349 37.2730851,50.7435944 37.9817552,50.2892005 C38.039843,50.4324279 38.0694877,50.5045459 38.1263736,50.6477733 C37.2526542,51.2085791 36.8051785,51.4551924 35.8974077,51.8823529" id="Fill-408" fill="#1A1919"></path>
                <path d="M11.6497253,4.23529412 C13.139606,5.09766134 14.567827,6.02092768 16.0841986,6.85751279 C15.8850606,7.21046102 15.4703421,7.35315168 15.2419729,7.67720616 C17.1566204,10.6768216 19.1699233,13.5790874 21.1366389,16.5275831 C20.3547028,16.7325065 19.3384598,16.7085024 18.4418823,16.8009624 C18.9520591,17.5375307 19.8577714,18.2332032 20.6310295,18.9857742 C22.4881279,20.7936337 24.3698902,22.5943809 26.4133379,24.448915 C26.6389666,24.6538383 27.5318903,25.4570845 27.5355442,25.5419877 C27.5501598,25.8589298 26.6184134,26.2936696 26.524782,26.4705882 C22.7338532,22.7495181 18.6401067,19.0302261 15.0172576,15.3256032 C16.3189621,15.353608 17.4635486,15.2286981 18.7780418,15.2709274 C17.4420819,13.0758917 15.7379908,10.7639474 14.2883031,8.49645502 C13.6945432,8.70493452 13.3341766,9.42194396 12.8290239,9.53440731 C12.4800757,7.72521423 12.0005004,6.04270912 11.6497253,4.23529412" id="Fill-410" fill="#1A1919"></path>
                <path d="M43.4217033,4.23529412 C41.9309929,5.09810585 40.5037656,6.02092768 38.9865658,6.85751279 C39.186606,7.21046102 39.6013012,7.35315168 39.8287441,7.67676164 C37.9151177,10.6768216 35.9010145,13.5786429 33.9353229,16.5271386 C34.7163017,16.7320619 35.7324875,16.7085024 36.6290146,16.8009624 C36.1188665,17.5375307 35.2141186,18.2332032 34.4399905,18.9862187 C32.5829964,20.7936337 30.7013399,22.5943809 28.6589205,24.4493595 C28.4333044,24.6538383 27.540431,25.457529 27.5357143,25.5415431 C27.5221625,25.8584853 28.4538565,26.2941141 28.5465692,26.4705882 C32.3381984,22.7495181 36.4317147,19.0302261 40.0534468,15.3256032 C38.7518155,15.353608 37.6082068,15.2286981 36.2928741,15.2709274 C37.6296723,13.0758917 39.3327541,10.7639474 40.7832738,8.49645502 C41.3760869,8.70493452 41.73689,9.42194396 42.242471,9.53485183 C42.5913995,7.72521423 43.0700345,6.04270912 43.4217033,4.23529412" id="Fill-412" fill="#1A1919"></path>
                <path d="M43.4217033,49.7647059 C41.9318207,48.9018941 40.5035978,47.9790723 38.9872243,47.1424872 C39.1863625,46.789539 39.6010815,46.6472928 39.8285376,46.3232384 C37.9157146,43.3227339 35.9014956,40.4209126 33.9347775,37.4724169 C34.7158012,37.2674935 35.7320455,37.2919421 36.6295376,37.1990376 C36.1184466,36.4624693 35.2136467,35.7667968 34.4403876,35.0137813 C32.5832868,33.2063663 30.7015221,31.4056191 28.6580718,29.5506405 C28.4324427,29.3457172 27.539518,28.542471 27.5357143,28.4580123 C27.5221619,28.1410702 28.452996,27.7054414 28.5466275,27.5294118 C32.3384747,31.2504819 36.4313129,34.9697739 40.0541666,38.6743968 C38.7524605,38.646392 37.6078725,38.7708574 36.2924642,38.7286281 C37.6293393,40.9241083 39.3334325,43.2360526 40.7831221,45.503545 C41.3768828,45.2950655 41.7367931,44.578056 42.2424032,44.4655927 C42.5913518,46.2747858 43.0709277,47.9572909 43.4217033,49.7647059" id="Fill-414" fill="#1A1919"></path>
                <path d="M11.6497253,49.7647059 C13.1396079,48.9018941 14.5678308,47.9790723 16.0842043,47.1424872 C15.8850661,46.789539 15.4694336,46.6472928 15.2419776,46.3232384 C17.155714,43.3227339 19.169933,40.4209126 21.1361944,37.4724169 C20.354714,37.2674935 19.3384697,37.2919421 18.4409776,37.1990376 C18.9520685,36.4624693 19.857782,35.7667968 20.6310411,35.0137813 C22.4881419,33.2063663 24.3699066,31.4056191 26.4124434,29.5506405 C26.638986,29.3457172 27.5319108,28.542471 27.5357143,28.4580123 C27.5492668,28.1410702 26.6175193,27.7054414 26.5248012,27.5294118 C22.732954,31.2504819 18.6392023,34.9697739 15.017262,38.6743968 C16.3189681,38.646392 17.4626426,38.7708574 18.778051,38.7286281 C17.4411759,40.9241083 15.7379961,43.2360526 14.287393,45.503545 C13.6945458,45.2950655 13.3341787,44.578056 12.8281119,44.4655927 C12.4791633,46.2747858 12.0005008,47.9572909 11.6497253,49.7647059" id="Fill-416" fill="#1A1919"></path>
                <path d="M77.2687632,27.6737835 L75.1211855,20.8224091 L72.9955355,27.6737835 L77.2687632,27.6737835 Z M78.5159603,31.7949538 L71.6897152,31.7949538 L70.7423466,34.9411765 L64.603022,34.9411765 L71.9161528,15.8823529 L78.4738948,15.8823529 L85.7843407,34.9411765 L79.4888367,34.9411765 L78.5159603,31.7949538 Z" id="Fill-418" fill="#1B1A3C"></path>
                <polygon id="Fill-420" fill="#1B1A3C" points="87.9024725 15.8823529 94.1068836 15.8823529 94.1068836 30.2480338 103.788462 30.2480338 103.788462 34.9411765 87.9024725 34.9411765"></polygon>
                <polygon id="Fill-422" fill="#1B1A3C" points="105.906593 15.8823529 122.55023 15.8823529 122.55023 19.9517013 112.130506 19.9517013 112.130506 22.980808 121.796223 22.980808 121.796223 26.8682346 112.130506 26.8682346 112.130506 30.6250282 122.851648 30.6250282 122.851648 34.9411765 105.906593 34.9411765"></polygon>
                <polygon id="Fill-424" fill="#1B1A3C" points="124.522347 15.8823529 131.152627 15.8823529 134.60152 21.7454936 137.955867 15.8823529 144.520727 15.8823529 138.45772 25.1130185 145.092033 34.9411765 138.32912 34.9411765 134.481882 28.8176467 130.634644 34.9411765 123.910714 34.9411765 130.630163 25.0086875"></polygon>
                <polygon id="Fill-426" fill="#D87834" points="156.741758 19.0588235 161.715873 19.0588235 163.634198 26.7898249 165.538556 19.0588235 170.509615 19.0588235 170.509615 31.7647059 167.41236 31.7647059 167.41236 22.0750151 165.025693 31.7647059 162.221752 31.7647059 159.839013 22.0750151 159.839013 31.7647059 156.741758 31.7647059"></polygon>
                <path d="M180.860772,26.9198605 L179.464549,22.3527566 L178.083659,26.9198605 L180.860772,26.9198605 Z M181.671176,29.6673722 L177.234471,29.6673722 L176.617986,31.7647059 L172.627747,31.7647059 L177.381489,19.0588235 L181.643667,19.0588235 L186.395604,31.7647059 L182.303445,31.7647059 L181.671176,29.6673722 Z" id="Fill-428" fill="#D87834"></path>
                <path d="M195.565687,26.5268154 L199.104396,27.5323327 C198.865873,28.4655578 198.491783,29.244998 197.981661,29.8710913 C197.470142,30.4967465 196.8361,30.9690548 196.07907,31.28714 C195.321108,31.6056633 194.357233,31.7647059 193.186515,31.7647059 C191.767025,31.7647059 190.606556,31.5706126 189.706971,31.1828641 C188.80692,30.7946775 188.029858,30.112503 187.376716,29.1350264 C186.722641,28.1579878 186.395604,26.9066775 186.395604,25.3828479 C186.395604,23.3503448 186.970947,21.7883976 188.120236,20.696568 C189.26999,19.6047383 190.896324,19.0588235 192.999704,19.0588235 C194.644672,19.0588235 195.938844,19.3720892 196.880357,19.9977444 C197.822336,20.6233996 198.522065,21.5851034 198.979544,22.8806653 L195.414747,23.6268073 C195.289895,23.252641 195.158987,22.9788073 195.022488,22.8053063 C194.79701,22.5152617 194.520286,22.2913753 194.193715,22.1353996 C193.867144,21.9785477 193.500974,21.9001217 193.097069,21.9001217 C192.182577,21.9001217 191.480984,22.2462475 190.994156,22.938499 C190.625657,23.4515538 190.442106,24.2581582 190.442106,25.3574361 C190.442106,26.7191562 190.661528,27.6528195 191.10177,28.1579878 C191.541081,28.6627181 192.158818,28.9150832 192.954981,28.9150832 C193.726918,28.9150832 194.311113,28.7113509 194.7057,28.3034483 C195.100754,27.8955456 195.388192,27.3031886 195.565687,26.5268154" id="Fill-430" fill="#D87834"></path>
                <polygon id="Fill-432" fill="#D87834" points="201.222527 19.0588235 204.984228 19.0588235 204.984228 23.5049535 209.094491 23.5049535 209.094491 19.0588235 212.872253 19.0588235 212.872253 31.7647059 209.094491 31.7647059 209.094491 26.6249017 204.984228 26.6249017 204.984228 31.7647059 201.222527 31.7647059"></polygon>
                <polygon id="Fill-434" fill="#D87834" points="214.990385 31.7647059 219.226648 31.7647059 219.226648 19.0588235 214.990385 19.0588235"></polygon>
                <polygon id="Fill-436" fill="#D87834" points="222.403846 19.0588235 225.918745 19.0588235 230.504792 26.0889013 230.504792 19.0588235 234.053571 19.0588235 234.053571 31.7647059 230.504792 31.7647059 225.943938 24.7885453 225.943938 31.7647059 222.403846 31.7647059"></polygon>
                <polygon id="Fill-437" fill="#D87834" points="237.230769 19.0588235 247.632414 19.0588235 247.632414 21.7719007 241.121252 21.7719007 241.121252 23.7913037 247.160772 23.7913037 247.160772 26.3825008 241.121252 26.3825008 241.121252 28.8871586 247.821429 28.8871586 247.821429 31.7647059 237.230769 31.7647059"></polygon>
                <polygon id="Fill-438" fill="#1A1919" points="217.108516 38.1176471 218.167582 38.1176471 218.167582 33.8823529 217.108516 33.8823529"></polygon>
                <path d="M219.226648,36.6930985 L220.255948,36.6173198 C220.27847,36.8132356 220.32391,36.9620208 220.392661,37.0641373 C220.503691,37.2300189 220.662927,37.3131907 220.870367,37.3131907 C221.024861,37.3131907 221.143793,37.2706806 221.22756,37.1856606 C221.310931,37.1011025 221.352814,37.0026825 221.352814,36.8913247 C221.352814,36.7850496 221.312512,36.6898641 221.233092,36.6062302 C221.153672,36.5225963 220.969148,36.443121 220.679127,36.3687284 C220.204582,36.2435086 219.866355,36.0785512 219.664051,35.8715457 C219.459772,35.6645403 219.35783,35.4011629 219.35783,35.0809513 C219.35783,34.8702494 219.410381,34.6715611 219.514694,34.4848866 C219.618612,34.2968259 219.775477,34.149889 219.985288,34.0431518 C220.194309,33.9359526 220.481564,33.8823529 220.84666,33.8823529 C221.293941,33.8823529 221.635329,33.9798488 221.869638,34.1743785 C222.105132,34.3693702 222.245006,34.6789542 222.289655,35.1031305 L221.269443,35.1733645 C221.242575,34.9890003 221.185282,34.8545392 221.097959,34.7709053 C221.011822,34.6868093 220.892099,34.6452234 220.739186,34.6452234 C220.612746,34.6452234 220.518706,34.6761818 220.454301,34.7385607 C220.391081,34.8009395 220.358681,34.8767183 220.358681,34.9668211 C220.358681,35.0315103 220.385154,35.0901927 220.43731,35.1428681 C220.488282,35.1964678 220.609585,35.2463709 220.800825,35.2935016 C221.274185,35.4127145 221.612806,35.5328516 221.817481,35.655299 C222.021761,35.7772843 222.170723,35.9283798 222.264367,36.1090475 C222.357617,36.2897152 222.403846,36.4916379 222.403846,36.7152777 C222.403846,36.977731 222.342207,37.2203155 222.217742,37.4411829 C222.093673,37.6634365 221.919818,37.8311663 221.696968,37.9457586 C221.474118,38.0603509 221.193184,38.1176471 220.853377,38.1176471 C220.257529,38.1176471 219.845414,37.983648 219.616241,37.7156499 C219.386279,37.4471897 219.256678,37.1066473 219.226648,36.6930985" id="Fill-439" fill="#1A1919"></path>
                <polygon id="Fill-440" fill="#1A1919" points="222.403846 33.8823529 226.64011 33.8823529 226.64011 34.9279158 225.219033 34.9279158 225.219033 38.1176471 223.824923 38.1176471 223.824923 34.9279158 222.403846 34.9279158"></polygon>
                <path d="M229.172826,36.5024723 L228.743098,34.9795249 L228.319077,36.5024723 L229.172826,36.5024723 Z M229.422147,37.4185344 L228.057465,37.4185344 L227.867841,38.1176471 L226.64011,38.1176471 L228.102677,33.8823529 L229.413807,33.8823529 L230.876374,38.1176471 L229.617039,38.1176471 L229.422147,37.4185344 Z" id="Fill-441" fill="#1A1919"></path>
                <polygon id="Fill-442" fill="#1A1919" points="230.876374 33.8823529 232.155199 33.8823529 233.822818 36.2253121 233.822818 33.8823529 235.112637 33.8823529 235.112637 38.1176471 233.822818 38.1176471 232.163694 35.7918909 232.163694 38.1176471 230.876374 38.1176471"></polygon>
                <path d="M237.243436,37.2077971 L237.78473,37.2077971 C237.967359,37.2077971 238.096866,37.1676567 238.172089,37.0878537 C238.246925,37.0080507 238.284148,36.9005316 238.284148,36.7652966 C238.284148,36.6400966 238.246925,36.5397455 238.172477,36.4637654 C238.098417,36.3873074 237.968135,36.3495563 237.782792,36.3495563 L237.243436,36.3495563 L237.243436,37.2077971 Z M237.243436,35.5438804 L237.705242,35.5438804 C237.870422,35.5438804 237.986359,35.5080407 238.050725,35.4382728 C238.115866,35.3675492 238.148437,35.2662423 238.148437,35.1329187 C238.148437,35.0096303 238.115866,34.9135799 238.050725,34.8447677 C237.986359,34.7749998 237.872749,34.7401159 237.712222,34.7401159 L237.243436,34.7401159 L237.243436,35.5438804 Z M236.171703,33.8823529 L238.159681,33.8823529 C238.491593,33.8823529 238.745955,33.9831819 238.923155,34.1857955 C239.100355,34.3884092 239.189149,34.6383312 239.189149,34.9369952 C239.189149,35.1869172 239.125947,35.4019553 238.998766,35.5811536 C238.915012,35.7006192 238.791321,35.7947581 238.628467,35.8640482 C238.875462,35.937639 239.057315,36.0628389 239.174027,36.2415594 C239.290351,36.4193242 239.348901,36.6429638 239.348901,36.912956 C239.348901,37.1327727 239.307024,37.3301299 239.224434,37.5055054 C239.141457,37.680403 239.028622,37.8189831 238.88438,37.9212456 C238.795199,37.9848013 238.661038,38.031154 238.480736,38.0598257 C238.242272,38.0985326 238.083295,38.1176471 238.005358,38.1176471 L236.171703,38.1176471 L236.171703,33.8823529 Z" id="Fill-443" fill="#1A1919"></path>
                <path d="M242.222618,33.8823529 L243.585165,33.8823529 L243.585165,36.3633943 C243.585165,36.6095723 243.545266,36.8416561 243.463473,37.0601155 C243.381681,37.2785749 243.254004,37.4697857 243.080943,37.6332779 C242.906385,37.7967701 242.724346,37.9123422 242.533331,37.9785847 C242.268502,38.0711363 241.949809,38.1176471 241.577752,38.1176471 C241.362298,38.1176471 241.127892,38.1030831 240.873537,38.0748948 C240.619182,38.0462367 240.40672,37.9903298 240.235654,37.9057649 C240.065086,37.8216698 239.907984,37.7023392 239.766842,37.5468337 C239.624702,37.391798 239.528446,37.2315944 239.47558,37.0671626 C239.391792,36.8021924 239.348901,36.5677596 239.348901,36.3633943 L239.348901,33.8823529 L240.711947,33.8823529 L240.711947,36.42212 C240.711947,36.6495057 240.778777,36.8270921 240.912439,36.9544093 C241.0461,37.0821963 241.232128,37.1460899 241.468529,37.1460899 C241.704431,37.1460899 241.888465,37.0831359 242.022126,36.9572281 C242.156286,36.8313203 242.222618,36.6527944 242.222618,36.42212 L242.222618,33.8823529 Z" id="Fill-444" fill="#1A1919"></path>
                <polygon id="Fill-445" fill="#1A1919" points="244.644231 33.8823529 245.884488 33.8823529 245.884488 37.0749514 247.821429 37.0749514 247.821429 38.1176471 244.644231 38.1176471"></polygon>
                <path d="M152.505495,24.8823529 C152.505495,26.3442698 151.320081,27.5294118 149.85783,27.5294118 C148.395578,27.5294118 147.210165,26.3442698 147.210165,24.8823529 C147.210165,23.4204361 148.395578,22.2352941 149.85783,22.2352941 C151.320081,22.2352941 152.505495,23.4204361 152.505495,24.8823529" id="Fill-446" fill="#1B1A3C"></path>
            </g>
        </g>
    </g>
</svg>