<?xml version="1.0" encoding="UTF-8"?>
<svg width="25px" height="25px" viewBox="0 0 25 25" version="1.1" xmlns="http://www.w3.org/2000/svg" xmlns:xlink="http://www.w3.org/1999/xlink">
    <!-- Generator: sketchtool 56.2 (101010) - https://sketch.com -->
    <title>2271FAF5-7392-42BC-9FAC-A4FEB0107F58</title>
    <desc>Created with sketchtool.</desc>
    <g id="Anasayfa" stroke="none" stroke-width="1" fill="none" fill-rule="evenodd">
        <g id="Desktop---1360px---AlexMak" transform="translate(-820.000000, -3360.000000)" fill="#FFFFFF" fill-rule="nonzero">
            <g id="561104" transform="translate(820.000000, 3360.000000)">
                <path d="M23.9310059,0.0825195312 L0.404052734,11.8948242 C0.166650391,12.0140137 0.0124023437,12.2523926 0.000976562499,12.5177246 C-0.0104492188,12.7831055 0.122607422,13.0338867 0.348876953,13.1730469 L5.85942383,16.5641602 L5.85942383,24.2675781 C5.85942383,24.5827637 6.06103516,24.8625488 6.36000977,24.9623047 C6.6590332,25.0620605 6.98818359,24.959375 7.17744141,24.707373 L10.9435547,19.6928711 L19.3910156,24.8913086 C19.5960449,25.0174805 19.8500488,25.0348633 20.0703125,24.9376953 C20.290625,24.8405762 20.4491211,24.6413574 20.4942871,24.404834 L24.9856445,0.874072266 C24.9871582,0.866259766 24.9885742,0.858447266 24.9898437,0.850585938 C25.0858887,0.257470703 24.4636719,-0.191894531 23.9310059,0.0825195312 Z M6.55341797,15.2713867 L2.2355957,12.6142578 L19.467627,3.9625 L6.55341797,15.2713867 Z M7.32412109,22.0728516 L7.32412109,16.543457 L19.4552734,5.92036133 C19.1888184,6.27509766 7.64140625,21.6503906 7.32412109,22.0728516 Z M19.2543945,23.0874023 L11.8268555,18.5166016 L22.9549805,3.6996582 L19.2543945,23.0874023 Z" id="Shape"></path>
            </g>
        </g>
    </g>
</svg>