<?xml version="1.0" encoding="UTF-8"?>
<svg width="95px" height="40px" viewBox="0 0 95 40" version="1.1" xmlns="http://www.w3.org/2000/svg" xmlns:xlink="http://www.w3.org/1999/xlink">
    <!-- Generator: sketchtool 56.2 (101010) - https://sketch.com -->
    <title>D11DF140-E121-4160-A477-E913830C5602</title>
    <desc>Created with sketchtool.</desc>
    <g id="Anasayfa" stroke="none" stroke-width="1" fill="none" fill-rule="evenodd">
        <g id="Desktop---1360px---AlexMak" transform="translate(-710.000000, -3812.000000)">
            <g id="Group-18" transform="translate(710.000000, 3812.000000)">
                <path d="M0.5,0.5 L0.5,39.2821577 L94.5,39.2821577 L94.5,0.5 L0.5,0.5 Z" id="Rectangle-8-Copy-10" stroke="#8D8C9D" fill="#00007B"></path>
                <g id="Group-48" transform="translate(22.000000, 13.000000)">
                    <path d="M11.5059299,12.7201061 L7.44668733,12.7201061 L7.25739623,11.6614387 C6.29980593,12.5545991 5.05889757,13.0011792 3.53467116,13.0011792 C2.52676819,13.0011792 1.70197035,12.7617925 1.06027763,12.2830189 C0.353425876,11.7423349 4.17443857e-14,10.9866156 4.17443857e-14,10.0158608 C4.17443857e-14,8.71739387 0.611175202,7.81391509 1.83352561,7.30542453 C2.33747709,7.09162736 3.46497574,6.87122642 5.21602156,6.6442217 C6.44002156,6.48325472 7.05202156,6.16957547 7.05202156,5.70318396 C7.05202156,5.16084906 6.62353908,4.8896816 5.76657412,4.8896816 C4.92280593,4.8896816 4.46298113,5.21120283 4.38709973,5.85424528 L0.604989218,5.85424528 C0.604989218,3.63537736 2.40676011,2.5259434 6.01030189,2.5259434 C8.13992992,2.5259434 9.55940701,2.91680425 10.2687332,3.69852594 C10.7471159,4.22847877 10.9863073,5.20542453 10.9863073,6.62936321 L10.9863073,11.2676887 C10.9741307,11.497295 10.9996247,11.7273469 11.0617763,11.9487028 C11.149021,12.1824041 11.3035968,12.3849389 11.5059299,12.5306604 L11.5059299,12.7201061 Z M5.31128571,10.7724057 C6.58312399,10.7724057 7.16048248,9.9589033 7.04336119,8.33189858 C6.6203457,8.5119829 6.17893306,8.64526225 5.72698383,8.72936321 C5.13477898,8.85318396 4.7438248,8.97287736 4.55412129,9.0884434 C4.23895778,9.25327968 4.04644896,9.58466537 4.05924259,9.94033019 C4.06171698,10.4950472 4.47906469,10.7724057 5.31128571,10.7724057 Z" id="Shape" fill="#8D8C9D"></path>
                    <polygon id="Shape" fill="#8D8C9D" points="10.5223585 12.7201061 14.0755876 7.53820755 10.8056765 2.80949292 15.1717439 2.80949292 16.4188383 5.28714623 17.7426388 2.80949292 22.0517951 2.80949292 18.668062 7.51839623 22.0889111 12.7201061 17.7042857 12.7201061 16.3062534 9.88337264 14.8698679 12.7201061 10.5223585 12.7201061"></polygon>
                    <path d="M31.9691644,8.65383255 L24.465566,8.65383255 C24.4483029,9.17966943 24.6546818,9.68816311 25.0334394,10.0530071 C25.4003432,10.4148473 25.8979298,10.6127046 26.4129137,10.601533 C27.1181159,10.601533 27.609283,10.3126179 27.8864151,9.73478774 L31.6474933,9.73478774 C31.3340701,10.8673349 30.6222695,11.7175708 29.5120916,12.2854953 C28.5792453,12.7650943 27.4657682,13.0044811 26.1716604,13.0036578 C24.5220647,13.0036578 23.186717,12.562441 22.1656173,11.6800118 C21.0801833,10.7447524 20.5374663,9.47104953 20.5374663,7.8589033 C20.5374663,6.25831368 21.0785337,4.95943396 22.1606685,3.96226415 C23.2065121,3.00471698 24.5356739,2.5259434 26.1481536,2.5259434 C27.9627089,2.5259434 29.3929084,3.09345519 30.438752,4.22847877 C31.4845957,5.36350236 31.9947332,6.83862028 31.9691644,8.65383255 Z M24.465566,6.64917453 L28.0385903,6.64917453 C28.0384356,6.19395179 27.8498683,5.75913069 27.5177305,5.44811321 C27.2006879,5.11380083 26.7596263,4.9255803 26.2990916,4.92806604 C25.0767412,4.92806604 24.465566,5.50176887 24.465566,6.64917453 L24.465566,6.64917453 Z" id="Shape" fill="#8D8C9D"></path>
                    <path d="M31.0771456,9.63696934 L34.8184286,9.63696934 C34.8025763,9.97919981 34.9499506,10.3086506 35.2155687,10.5247642 C35.495101,10.7441563 35.8428503,10.8581219 36.197903,10.8466981 C37.0309488,10.8466981 37.4470593,10.5503538 37.4462345,9.95766509 C37.4462345,9.55400943 36.9233127,9.24487028 35.877469,9.03024764 C34.351593,8.70005896 33.3750323,8.43549528 32.9477871,8.2365566 C31.9027682,7.71898585 31.3798464,6.90548349 31.3790216,5.79604953 C31.3790216,4.64946934 31.9019434,3.78602594 32.9477871,3.20571934 C33.7791833,2.75170991 34.818841,2.52470519 36.0667601,2.52470519 C39.1663504,2.52470519 40.8039865,3.56479953 40.9796685,5.64498821 L37.4078814,5.64498821 C37.332,5.00194575 36.9414582,4.68042453 36.2362561,4.68042453 C35.493938,4.68042453 35.122779,4.91362028 35.122779,5.38001179 C35.122779,5.7209316 35.6642588,6.0098467 36.7472183,6.24675708 C38.2607224,6.57694575 39.2624394,6.86586085 39.7523693,7.11350236 C40.8361536,7.65501179 41.3780458,8.46191038 41.3780458,9.53419811 C41.3780458,10.6064858 40.942965,11.4414505 40.0728032,12.039092 C39.1539784,12.6804835 37.8120323,13.0011792 36.046965,13.0011792 C34.7116173,13.0011792 33.6282453,12.7741745 32.7968491,12.3201651 C31.7518302,11.753066 31.1785957,10.857842 31.0771456,9.63449292 L31.0771456,9.63696934 Z" id="Shape" fill="#8D8C9D"></path>
                    <path d="M40.7037736,9.63696934 L44.4462938,9.63696934 C44.4301436,9.97933865 44.5770037,10.3091253 44.8421968,10.5260024 C45.1221089,10.7455769 45.47031,10.859547 45.8257682,10.8479363 C46.6571644,10.8479363 47.0728625,10.551592 47.0728625,9.9589033 C47.0728625,9.55524764 46.5499407,9.24610849 45.504097,9.03148585 C43.9798706,8.70129717 43.00331,8.43673349 42.5744151,8.23779481 C41.5285714,7.72022406 41.0056496,6.9067217 41.0056496,5.79728774 C41.0056496,4.65070755 41.5285714,3.78726415 42.5744151,3.20695755 C43.4058113,2.75294811 44.445469,2.5259434 45.6933881,2.5259434 C48.7921536,2.5259434 50.4302022,3.56603774 50.6075337,5.64622642 L47.0295606,5.64622642 C46.9536792,5.00318396 46.5631375,4.68166274 45.8579353,4.68166274 C45.1156173,4.68166274 44.7444582,4.91485849 44.7444582,5.38125 C44.7444582,5.72216981 45.2863504,6.01108491 46.3701348,6.24799528 C47.8819892,6.57818396 48.8837062,6.86709906 49.3752857,7.11474057 C50.4582453,7.65625 50.9997251,8.46314858 50.9997251,9.53543632 C50.9997251,10.6077241 50.5646442,11.4422759 49.6944825,12.039092 C48.7756577,12.6804835 47.434124,13.0011792 45.6698814,13.0011792 C44.3337089,13.0011792 43.2499245,12.7741745 42.4185283,12.3201651 C41.3735094,11.754717 40.8019245,10.8603184 40.7037736,9.63696934 Z" id="Shape" fill="#8D8C9D"></path>
                    <polygon id="Shape" fill="#D2D2D2" points="13.5584394 1.3500312e-13 16.3718248 5.58803066 19.3559434 1.3500312e-13 13.5584394 1.3500312e-13"></polygon>
                </g>
            </g>
        </g>
    </g>
</svg>