<?xml version="1.0" encoding="UTF-8"?>
<svg width="95px" height="40px" viewBox="0 0 95 40" version="1.1" xmlns="http://www.w3.org/2000/svg" xmlns:xlink="http://www.w3.org/1999/xlink">
    <!-- Generator: sketchtool 56.2 (101010) - https://sketch.com -->
    <title>30E9925A-D6EB-4B14-9688-D1EF45B8FD2F</title>
    <desc>Created with sketchtool.</desc>
    <g id="Anasayfa" stroke="none" stroke-width="1" fill="none" fill-rule="evenodd">
        <g id="Desktop---1360px---AlexMak" transform="translate(-440.000000, -3812.000000)">
            <g id="Group-16" transform="translate(440.000000, 3812.000000)">
                <path d="M0.5,0.5 L0.5,39.2821577 L94.5,39.2821577 L94.5,0.5 L0.5,0.5 Z" id="Rectangle-8-Copy-7" stroke="#8D8C9D" fill="#00007B"></path>
                <g id="Group-47" transform="translate(23.000000, 14.000000)" fill="#8D8C9D" fill-rule="nonzero">
                    <path d="M10.549685,4.21729766 L6.79632754,4.21729766 C6.79654949,4.21432006 6.79654949,4.21133015 6.79632754,4.20835255 L6.79632754,0.481600041 C6.80394895,0.352003791 6.75552726,0.225356598 6.66330082,0.133667918 C6.57107438,0.0419792381 6.44386825,-0.00597732135 6.31383316,0.00191902437 L4.69018346,0.00191902437 C4.55913859,-0.0103024734 4.42944317,0.0362945089 4.33637551,0.12903518 C4.24330785,0.221775851 4.19654657,0.351015589 4.20881116,0.481600041 L4.20881116,4.21617952 L0.482383628,4.21617952 C0.351095566,4.20420948 0.221296743,4.25125108 0.128400436,4.34446985 C0.0355041289,4.43768862 -0.0107955603,4.56735682 0.00213340647,4.69809681 L0.00213340647,6.31716001 C-0.0101364096,6.44744832 0.0365048957,6.5764071 0.12936368,6.66893963 C0.222222465,6.76147216 0.351635934,6.80794959 0.482383628,6.79572289 L4.206567,6.79572289 L4.206567,6.8080224 L4.206567,10.5124122 C4.19430241,10.6429966 4.24106369,10.7722364 4.33413135,10.864977 C4.42719901,10.9577177 4.55689443,11.0043147 4.6879393,10.9920932 L6.31383316,10.9920932 C6.44487803,11.0043147 6.57457345,10.9577177 6.66764111,10.864977 C6.76070877,10.7722364 6.80747005,10.6429966 6.79520546,10.5124122 L6.79520546,6.80914054 C6.79543192,6.8050438 6.79543192,6.80093776 6.79520546,6.79684102 L10.549685,6.79684102 C10.6805165,6.80901141 10.8100011,6.76255793 10.9030235,6.67007842 C10.9960459,6.57759891 11.0429652,6.44867801 11.0310573,6.31827815 L11.0310573,4.69809681 C11.0389815,4.56851859 10.9908558,4.4417594 10.8988439,4.34985699 C10.8068319,4.25795459 10.6797382,4.20970303 10.549685,4.21729766 Z" id="Shape"></path>
                    <path d="M19.362501,8.19004043 L19.362501,6.36188551 C19.362501,4.60305512 18.0519116,3.2959523 16.37328,3.2959523 C15.6214864,3.2959523 15.1849973,3.64481122 14.9751683,3.64481122 C14.9044773,3.64481122 14.8528616,3.57548669 14.8528616,3.4536097 L14.8528616,0.474891216 C14.8587466,0.427071066 14.8422061,0.37921433 14.8080188,0.345147064 C14.7738314,0.311079798 14.7258059,0.294597413 14.6778172,0.300461755 L13.0350921,0.300461755 C12.9127854,0.300461755 12.8600476,0.353014221 12.8600476,0.474891216 L12.8600476,11.0971981 C12.8600476,11.217957 12.9127854,11.2705161 13.0350921,11.2705161 L14.520726,11.2705161 C14.7653394,11.2705161 14.660986,10.9227686 14.8169551,10.9227686 C15.0279061,10.9227686 15.4296107,11.2705161 16.2161888,11.2705161 C18.0339583,11.2738638 19.362501,10.0193135 19.362501,8.19004043 Z M17.3528558,8.19004043 C17.3643372,8.52321669 17.2377257,8.84641975 17.0027617,9.08373077 C16.7677978,9.32104179 16.4451885,9.4515468 16.1107133,9.44459078 C15.7755313,9.44915651 15.4527513,9.31841103 15.2158254,9.08210699 C14.9788995,8.84580295 14.8479809,8.52404051 14.8528616,8.19004043 L14.8528616,6.36188551 C14.8528616,5.67395673 15.4125044,5.11628026 16.1028587,5.11628026 C16.793213,5.11628026 17.3528558,5.67395673 17.3528558,6.36188551 L17.3528558,8.19004043 Z" id="Shape"></path>
                    <path d="M26.5112724,8.36446989 L26.5112724,6.20534625 C26.5112724,4.35930113 25.2175142,3.12264098 23.2572405,3.12264098 C21.2823798,3.12264098 19.9886216,4.35930113 19.9886216,6.20534625 L19.9886216,8.36446989 C19.9886216,10.2116332 21.2823798,11.4482933 23.2572405,11.4482933 C25.2175142,11.4482933 26.5112724,10.2116332 26.5112724,8.36446989 Z M24.5005051,8.36446989 C24.5005051,9.05178115 23.9413647,9.60895701 23.2516301,9.60895701 C22.5618955,9.60895701 22.0027551,9.05178115 22.0027551,8.36446989 L22.0027551,6.20534625 C22.0027551,5.518035 22.5618955,4.96085914 23.2516301,4.96085914 C23.9413647,4.96085914 24.5005051,5.518035 24.5005051,6.20534625 L24.5005051,8.36446989 Z" id="Shape"></path>
                    <path d="M33.7307348,11.2738638 L32.0700565,11.2738638 C31.9477498,11.2738638 31.8961341,11.2213114 31.8961341,11.1005525 L31.8961341,6.36188551 C31.8961341,5.67395673 31.3364913,5.11628026 30.646137,5.11628026 C29.9557827,5.11628026 29.3961399,5.67395673 29.3961399,6.36188551 L29.3961399,11.1005525 C29.3961399,11.2213114 29.3434022,11.2738638 29.2210955,11.2738638 L27.5783704,11.2738638 C27.4549416,11.2738638 27.4033259,11.2213114 27.4033259,11.1005525 L27.4033259,3.46814548 C27.4033259,3.34626849 27.4549416,3.29371602 27.5783704,3.29371602 L29.0640043,3.29371602 C29.326571,3.29371602 29.2210955,3.64257495 29.3613555,3.64257495 C29.5711844,3.64257495 29.9897202,3.29371602 30.7942516,3.29371602 C32.5772366,3.29371602 33.9046572,4.54826638 33.9046572,6.35964924 L33.9046572,11.1005525 C33.9046572,11.2213114 33.8530415,11.2738638 33.7307348,11.2738638 Z" id="Shape"></path>
                    <path d="M41.212764,11.2738638 L39.7237639,11.2738638 C39.4780283,11.2738638 39.5835039,10.9261231 39.4264127,10.9261231 C39.2165837,10.9261231 38.7958037,11.2738638 38.0092257,11.2738638 C36.1914562,11.2738638 34.8808668,10.0193135 34.8808668,8.19004043 L34.8808668,3.46814548 C34.8808668,3.34626849 34.9336045,3.29371602 35.0559112,3.29371602 L36.7165896,3.29371602 C36.765118,3.28670349 36.814149,3.3026745 36.8491514,3.33689579 C36.8841537,3.37111708 36.901112,3.41966273 36.8950003,3.46814548 L36.8950003,8.19004043 C36.8836045,8.52183408 37.0091571,8.84378605 37.2423918,9.08084961 C37.4756265,9.31791316 37.7961644,9.44937475 38.1292882,9.44459078 C38.4645703,9.44914946 38.7874601,9.31843839 39.0245624,9.08216912 C39.2616648,8.84589986 39.3928367,8.52414453 39.3882619,8.19004043 L39.3882619,3.46814548 C39.3882619,3.34626849 39.4421218,3.29371602 39.5633064,3.29371602 L41.2071536,3.29371602 C41.2560362,3.28591779 41.3057479,3.30153719 41.341301,3.33586514 C41.3768541,3.37019309 41.3940886,3.41921286 41.3878084,3.46814548 L41.3878084,11.1005525 C41.3878084,11.2213114 41.3339486,11.2738638 41.212764,11.2738638 Z" id="Shape"></path>
                    <path d="M47.7679551,3.71413575 C48.413151,4.18487167 48.7980245,4.9329057 48.7980245,5.14199742 C48.7939099,5.20466033 48.753611,5.25922195 48.6947931,5.28176462 L47.2607749,5.97836432 C47.2337146,5.99206141 47.2035786,5.99860644 47.1732527,5.99737266 C47.1025616,5.99737266 47.0857304,5.96159226 47.0329927,5.89226773 C46.6649505,5.35220729 46.4719527,4.89936157 45.7571878,4.89936157 L45.2500076,4.89936157 C44.6205208,4.89936157 44.2883851,5.12298909 44.2883851,5.56018087 C44.2883851,6.27467078 45.2500076,6.11924966 46.6840258,6.50053457 C48.0989686,6.88517389 48.7643621,7.52922113 48.7643621,8.67866655 C48.7643621,10.3156199 47.5917885,11.4482933 45.7571878,11.4482933 L45.2500076,11.4482933 C44.2715539,11.4482933 43.5197603,11.1687589 42.9777957,10.5951543 C42.4358311,10.0215498 42.2260022,9.54969572 42.2260022,9.39315646 C42.2260022,9.34060399 42.2607866,9.30594173 42.3303556,9.27127946 L43.7632517,8.57467976 C43.7900281,8.56027676 43.8204696,8.5540543 43.8507739,8.55678956 C43.9023896,8.55678956 43.9382962,8.60822388 43.9899118,8.67866655 C44.3388787,9.25338926 44.5666609,9.67157271 45.2488856,9.67157271 L45.7560657,9.67157271 C46.3855526,9.67157271 46.7659377,9.35849419 46.7659377,8.92242054 C46.7659377,8.22693897 45.7874839,8.3823601 44.3545878,8.01672911 C42.9553541,7.66787019 42.3090361,7.0104053 42.3090361,5.82182506 C42.3090361,4.23630599 43.515272,3.12264098 45.2455193,3.12264098 L45.7526995,3.12264098 C46.5774282,3.12264098 47.2259904,3.3138425 47.7679551,3.71413575 Z" id="Shape"></path>
                    <path d="M19.1459395,7.89261584 L19.1459395,6.06334278 C19.1459395,4.30339425 17.8353501,2.99740957 16.1578406,2.99740957 C15.406047,2.99740957 14.9684359,3.34515035 14.7586069,3.34515035 C14.689038,3.34515035 14.6374223,3.27582582 14.6374223,3.15506697 L14.6374223,0.176348485 C14.6429226,0.128413904 14.6260941,0.080608488 14.5917489,0.0466019329 C14.5574037,0.0125953778 14.5093232,-0.00386814276 14.4612557,0.00191902437 L12.8185307,0.00191902437 C12.697346,0.00191902437 12.6434862,0.0544714901 12.6434862,0.176348485 L12.6434862,10.7986554 C12.6434862,10.9205324 12.697346,10.9730878 12.8185307,10.9730878 L14.3041645,10.9730878 C14.548778,10.9730878 14.4444245,10.6242259 14.6026378,10.6242259 C14.8102226,10.6242259 15.2130493,10.9730878 16.0007494,10.9730878 C17.8173969,10.9753211 19.1459395,9.7218889 19.1459395,7.89261584 Z M17.1362943,7.89261584 C17.1474604,8.22560153 17.0207093,8.54850863 16.785781,8.78557215 C16.5508527,9.02263568 16.2284255,9.15298946 15.8941518,9.14604805 C15.5593606,9.15030243 15.2370485,9.01957477 15.0004017,8.78354893 C14.763755,8.5475231 14.6328541,8.22622687 14.6374223,7.89261584 L14.6374223,6.06334278 C14.6576669,5.39024621 15.2110852,4.85505301 15.8868583,4.85505301 C16.5626314,4.85505301 17.1160497,5.39024621 17.1362943,6.06334278 L17.1362943,7.89261584 Z" id="Shape"></path>
                    <path d="M26.295833,8.0670453 L26.295833,5.90680352 C26.295833,4.0607584 25.0020748,2.82298011 23.0418011,2.82298011 C21.0815275,2.82298011 19.7754264,4.0607584 19.7754264,5.90680352 L19.7754264,8.0670453 C19.7754264,9.91309043 21.0691846,11.1497506 23.0440453,11.1497506 C25.018906,11.1497506 26.295833,9.91309043 26.295833,8.0670453 Z M24.2850657,8.0670453 C24.2987119,8.52075447 24.0636003,8.94594159 23.6714085,9.1768127 C23.2792168,9.40768382 22.7920427,9.40768382 22.3998509,9.1768127 C22.0076591,8.94594159 21.7725475,8.52075447 21.7861937,8.0670453 L21.7861937,5.90680352 C21.7725475,5.45309435 22.0076591,5.02790723 22.3998509,4.79703612 C22.7920427,4.56616501 23.2792168,4.56616501 23.6714085,4.79703612 C24.0636003,5.02790723 24.2987119,5.45309435 24.2850657,5.90680352 L24.2850657,8.0670453 Z" id="Shape"></path>
                    <path d="M33.5141734,10.9753211 L31.8546171,10.9753211 C31.7323104,10.9753211 31.6784506,10.9227686 31.6784506,10.8008917 L31.6784506,6.06334278 C31.6784506,5.37603153 31.1193102,4.81885567 30.4295756,4.81885567 C29.739841,4.81885567 29.1807006,5.37603153 29.1807006,6.06334278 L29.1807006,10.8008917 C29.1807006,10.9227686 29.1268407,10.9753211 29.004534,10.9753211 L27.361809,10.9753211 C27.2395023,10.9753211 27.1878866,10.9227686 27.1878866,10.8008917 L27.1878866,3.17183903 C27.1878866,3.04996203 27.2395023,2.99740957 27.361809,2.99740957 L28.8474428,2.99740957 C29.1100095,2.99740957 29.004534,3.34515035 29.144794,3.34515035 C29.354623,3.34515035 29.7742809,2.99740957 30.5788122,2.99740957 C32.3606752,2.99740957 33.6903399,4.25084178 33.6903399,6.06334278 L33.6903399,10.8008917 C33.6903399,10.9227686 33.6364801,10.9753211 33.5141734,10.9753211 Z" id="Shape"></path>
                    <path d="M40.9950804,10.9753211 L39.5094466,10.9753211 C39.2648332,10.9753211 39.3703087,10.6264622 39.2132175,10.6264622 C39.0033885,10.6264622 38.5848527,10.9753211 37.7971526,10.9753211 C35.978261,10.9753211 34.6676716,9.7218889 34.6676716,7.89261584 L34.6676716,3.17183903 C34.6676716,3.04996203 34.7204093,2.99740957 34.842716,2.99740957 L36.5033944,2.99740957 C36.5513831,2.99154523 36.5994086,3.00802761 36.633596,3.04209488 C36.6677834,3.07616214 36.6843239,3.12401888 36.6784389,3.17183903 L36.6784389,7.89261584 C36.6672857,8.22540345 36.7938856,8.54813118 37.0285666,8.78515923 C37.2632475,9.02218728 37.5853784,9.15267823 37.9194593,9.14604805 C38.2544438,9.15060683 38.5770482,9.02001359 38.8139402,8.78395399 C39.0508321,8.54789439 39.1818858,8.22642341 39.1773109,7.89261584 L39.1773109,3.17183903 C39.1773109,3.04996203 39.2311708,2.99740957 39.3534775,2.99740957 L40.9950804,2.99740957 C41.0430692,2.99154523 41.0910947,3.00802761 41.1252821,3.04209488 C41.1594694,3.07616214 41.1760099,3.12401888 41.1701249,3.17183903 L41.1701249,10.8008917 C41.1701249,10.9227686 41.1185092,10.9753211 40.9950804,10.9753211 Z" id="Shape"></path>
                    <path d="M47.5502715,3.41559302 C48.1988338,3.8852108 48.5825851,4.63436297 48.5825851,4.84345469 C48.5771696,4.90658127 48.5362909,4.96118353 48.4771096,4.98434003 L47.0442135,5.67982159 C47.0168857,5.69264614 46.9868788,5.69877977 46.9566913,5.69771179 C46.8871223,5.69771179 46.869169,5.66193139 46.8164313,5.59260686 C46.4495111,5.05366456 46.2553913,4.60081884 45.5406263,4.60081884 L45.0334462,4.60081884 C44.4039594,4.60081884 44.0729458,4.82444635 44.0729458,5.26275628 C44.0729458,5.97612805 45.0334462,5.82182506 46.4674644,6.20199184 C47.8835293,6.58551302 48.5466785,7.22956026 48.5466785,8.38012382 C48.5466785,10.0170772 47.3763492,11.1497506 45.5406263,11.1497506 L45.0334462,11.1497506 C44.0549925,11.1497506 43.3031989,10.8713343 42.7612343,10.2966116 C42.2192697,9.73754283 42.0094407,9.25115299 42.0094407,9.09349559 C42.0094407,9.04206126 42.0453473,9.00628086 42.1137942,8.97273673 L43.5478123,8.27613703 C43.5752218,8.26244522 43.6059185,8.25663721 43.6364567,8.25936496 C43.6880723,8.25936496 43.7217347,8.31079929 43.7755946,8.38124196 C44.1245614,8.95596467 44.3534658,9.37414812 45.0334462,9.37414812 L45.5406263,9.37414812 C46.1701132,9.37414812 46.5504983,9.05995146 46.5504983,8.62499595 C46.5504983,7.92839624 45.5720446,8.0849355 44.1380264,7.71930452 C42.7410369,7.3704456 42.0935967,6.71298071 42.0935967,5.52440047 C42.0935967,3.93999954 43.2998327,2.82409353 45.03008,2.82409353 L45.5372601,2.82409353 C46.363111,2.82298011 47.0071848,3.02089046 47.5502715,3.41559302 Z" id="Shape"></path>
                </g>
            </g>
        </g>
    </g>
</svg>