<?xml version="1.0" encoding="UTF-8"?>
<svg width="96px" height="40px" viewBox="0 0 96 40" version="1.1" xmlns="http://www.w3.org/2000/svg" xmlns:xlink="http://www.w3.org/1999/xlink">
    <!-- Generator: sketchtool 56.2 (101010) - https://sketch.com -->
    <title>8A8C3B5F-0EDE-41FA-A840-6150183E35F8</title>
    <desc>Created with sketchtool.</desc>
    <g id="Anasayfa" stroke="none" stroke-width="1" fill="none" fill-rule="evenodd">
        <g id="Desktop---1360px---AlexMak" transform="translate(-305.000000, -3812.000000)">
            <g id="Group-34" transform="translate(305.000000, 3812.000000)">
                <g id="Group-13" fill="#00007B" stroke="#8D8C9D">
                    <path d="M1.31836791,0.5 L1.31836791,39.2821577 L95.3183679,39.2821577 L95.3183679,0.5 L1.31836791,0.5 Z" id="Rectangle-8-Copy-12"></path>
                </g>
                <g id="Group-46" transform="translate(32.000000, 12.000000)" fill-rule="nonzero">
                    <path d="M0.00396575643,8.63849643 C0.161769177,3.88238647 4.56825817,8.50443075e-05 9.84781175,8.50443075e-05 C15.1273653,8.50443075e-05 19.214817,3.88238647 18.9712508,8.63849643 C18.7345457,13.3464306 14.3400635,17.1340418 9.13769635,17.1340418 C3.93532924,17.1340418 -0.145261391,13.3431082 0.00396575643,8.63849643 Z" id="Shape" fill="#8D8C9D"></path>
                    <path d="M13.3640836,9.74875846 L12.463575,9.74875846 L12.571636,9.11693152 L13.4292633,9.11693152 C13.3796266,9.31491259 13.354437,9.53069821 13.3555073,9.74875846 L13.3640836,9.74875846 Z" id="Shape" fill="#D2D2D2"></path>
                    <path d="M16.0707553,2.16965529 C17.9039379,0.756081529 20.180313,-0.0092862196 22.523543,-4.28990177e-13 C27.8030966,-4.28990177e-13 31.8408059,3.8840477 31.5457821,8.63849643 C31.2524736,13.3464306 26.8065337,17.1340418 21.6110276,17.1340418 C19.2096712,17.1340418 17.0604572,16.3482786 15.4601247,15.0226147 L15.4601247,15.0226147 C15.6316502,14.8847323 15.8031756,14.7418663 15.9747011,14.5940166 L15.0124433,14.5940166 C14.8615009,14.4411831 14.7774534,14.3564603 14.7036974,14.2717374 L16.331474,14.2717374 C16.5475961,14.0491322 16.7774402,13.8115759 16.9695487,13.5706971 L14.1170804,13.5706971 C14.0398939,13.4610557 13.9558464,13.3480919 13.8838058,13.2384505 L17.2457047,13.2384505 C17.4172302,13.0125228 17.5887556,12.7733053 17.7311218,12.5340877 L13.4669989,12.5340877 C13.4121107,12.4277688 13.3537921,12.3181274 13.3040497,12.2018411 L17.9232303,12.2018411 C18.0467286,11.9709297 18.1685117,11.7499858 18.2662812,11.509107 L13.0158869,11.509107 C12.9781513,11.3978044 12.9369852,11.2848405 12.9026801,11.1768604 L18.4223694,11.1768604 C18.5098473,10.9476102 18.5938948,10.7216826 18.662505,10.4841262 L17.1753793,10.4841262 L17.2508505,10.1518797 L18.7482677,10.1518797 C18.8048711,9.9176458 18.8494677,9.69504059 18.8854881,9.45582304 L17.4343827,9.45582304 L17.537298,9.12357645 L18.9300847,9.12357645 C18.9472373,8.95745315 18.9643898,8.80295849 18.9712508,8.64181889 C18.9915064,8.22065325 18.978892,7.79860744 18.9335152,7.37928184 L12.7585988,7.37928184 C12.7791818,7.2713017 12.7946191,7.16498279 12.8203479,7.05700265 L18.8872033,7.05700265 C18.851183,6.81114017 18.8134474,6.57856756 18.7551287,6.34101124 L13.029609,6.34101124 C13.0673446,6.22970864 13.123948,6.12006726 13.1651141,6.00876465 L18.6539287,6.00876465 C18.5836033,5.76622464 18.4926948,5.53365203 18.400071,5.30107941 L13.4790057,5.30107941 C13.5338938,5.18811557 13.609365,5.07515173 13.6693989,4.96883282 L18.2439829,4.96883282 C18.1305545,4.726947 18.0046094,4.49075225 17.8666269,4.26114758 L14.1102194,4.26114758 C14.1839753,4.14984497 14.2817448,4.0402036 14.357216,3.92890099 L17.6539353,3.92890099 C17.4874697,3.67766362 17.3071049,3.43532389 17.1136301,3.20294219 L14.9575551,3.20294219 C15.0587551,3.08831711 15.1976908,2.97867574 15.300606,2.8706956 L16.8134606,2.8706956 C16.5788942,2.6238176 16.3297654,2.39030047 16.0673248,2.17131652 L16.0707553,2.16965529 Z" id="Shape" fill="#D2D2D2"></path>
                    <path d="M16.1805316,10.8994345 L16.9523962,7.86436187 L17.7465591,7.86436187 L17.8151692,8.16504503 C18.0575891,7.9510252 18.3798642,7.84238165 18.7071016,7.86436187 L18.4189388,8.65676999 C18.1942405,8.65676999 17.7705726,8.60361053 17.4532505,9.51230496 L17.1101996,10.8994345 L16.1805316,10.8994345 Z M12.3537987,7.05035772 L13.2800361,7.05035772 L13.0536225,7.86436187 L13.5544769,7.86436187 L13.3589379,8.52885505 L12.8803818,8.52885505 L12.564775,9.76813484 C12.5081716,10.0040299 12.5218936,10.2166677 13.0570531,10.1419123 L12.9712903,10.7615521 C12.7587229,10.8650009 12.5229915,10.9157992 12.2851885,10.9094019 C12.0724969,10.9094019 11.3795341,10.7931156 11.5990867,9.96083786 L12.3537987,7.05035772 Z M16.2457113,9.53390099 L14.2320024,9.54220715 C14.0947821,10.2282964 14.6865449,10.2067003 15.0536094,10.2067003 C15.4032053,10.2060442 15.7523008,10.1810614 16.0981994,10.1319449 L15.926674,10.7615521 C15.6968298,10.8678711 15.1273653,10.9094019 14.7380025,10.8994345 C13.1411005,10.8994345 13.225148,9.54552962 13.2697446,9.3528266 C13.3143412,9.16012357 13.5647684,7.82116981 15.0587551,7.82116981 C16.6831012,7.82116981 16.3760706,9.0355311 16.2457113,9.53390099 Z M14.3177652,9.04661978 L15.4652705,9.04661978 C15.5407417,8.70678697 15.4446874,8.41604112 15.0776229,8.41604112 C14.7185395,8.39422014 14.3975079,8.66063278 14.3177652,9.04661978 Z M11.4104087,8.55045108 L11.4104087,8.55543478 C11.1110719,8.49900954 10.8049255,8.48446405 10.5013237,8.51224272 C10.1531271,8.59862683 10.2834864,8.88768137 10.4704492,8.96077562 C10.6940218,9.05731313 10.9106332,9.16831277 11.1188154,9.29302221 C11.2920561,9.38937372 11.4996019,9.59204414 11.4052629,10.040577 C11.2131544,10.9575776 10.1153915,10.9044182 9.89069311,10.9044182 C9.52659368,10.9171317 9.16241626,10.8813579 8.80836748,10.7980993 L8.96445564,10.1601858 C9.4189981,10.2997294 10.0364898,10.2349413 10.1788559,10.2349413 C10.2993617,10.2470786 10.411557,10.1739255 10.4452863,10.0612245 C10.4790156,9.94852338 10.4246045,9.82859952 10.3160762,9.776441 C10.1308288,9.69171812 9.92842871,9.56214195 9.5853778,9.42425961 C9.36925572,9.3378755 9.14970314,9.10364165 9.30236079,8.53549998 C9.50304558,7.79625132 10.6128153,7.80787995 10.7431746,7.80787995 C11.0509357,7.78978614 11.3593454,7.83100511 11.6505443,7.92914995 L11.4104087,8.55045108 Z M5.32811595,10.8994345 L4.3710039,10.8994345 L5.01079385,8.29295997 L3.62486816,10.8994345 L2.75008833,10.8994345 L2.59571542,8.22983312 L1.9353424,10.8994345 L1.01253544,10.8994345 L1.9319119,7.19986868 L3.41389185,7.19986868 L3.51166136,9.44917811 L4.71920058,7.19986868 L6.23720087,7.19986868 L5.32811595,10.8994345 Z M6.45846871,7.91752132 L6.44817718,7.91586009 C6.84888868,7.8453818 7.25531199,7.80980005 7.66257742,7.80954118 C9.21488281,7.80954118 9.01934379,8.81624835 8.90785224,9.23321782 L8.47389283,10.8944508 L7.61626555,10.8944508 L7.504774,10.7283275 C7.3349638,10.8346464 7.2028892,10.8878059 6.72947893,10.9094019 C6.25606867,10.9309979 5.66430585,10.6120412 5.79466519,9.98243389 C6.10341102,8.69996204 7.75348591,8.93585712 7.99019105,8.9142611 C8.11711988,8.45409957 7.75863168,8.49729162 7.43959433,8.48566299 C7.0538942,8.49811083 6.66914165,8.53027276 6.28694325,8.5820145 L6.45846871,7.91752132 Z M7.81695033,9.53390099 C7.66429268,9.51230496 7.32467227,9.42758208 7.02107221,9.60865647 C6.71747215,9.78973087 6.62313315,10.1070264 6.92673321,10.2166677 C7.23033327,10.3263091 7.66257742,10.1435735 7.73290286,9.86448635 L7.81695033,9.53223976 L7.81695033,9.53390099 Z" id="Combined-Shape" fill="#D2D2D2"></path>
                    <path d="M24.4549197,10.8994345 L25.2525131,7.86436187 L26.0449607,7.86436187 L26.1118556,8.16504503 C26.3546974,7.95059336 26.6776857,7.84191836 27.0055032,7.86436187 L26.7224862,8.66839862 C26.4977879,8.66839862 26.0621132,8.60361053 25.7396454,9.51230496 L25.3760114,10.8994345 L24.4549197,10.8994345 Z M21.4446479,8.05706489 C21.2313026,7.93932613 20.9860413,7.88718389 20.7413935,7.90755392 C20.1580144,7.9553577 19.6765212,8.36897095 19.5578679,8.92422849 C19.3588984,9.81132689 20.0106951,10.2532149 20.9729529,9.96083786 L21.2045123,10.7067315 C20.8458879,10.8491729 20.4597256,10.9149063 20.0724443,10.8994345 C19.1153322,10.8994345 18.1119083,10.1319449 18.6642202,8.57370834 C18.9760646,7.6651878 19.8423726,7.0433934 20.8305868,7.01879429 C21.5887293,7.04537402 21.8477327,7.2762854 22.0724311,7.51716418 L21.4446479,8.05706489 Z M29.3108054,8.18664106 L29.6298427,7.00716566 L30.6023921,7.00716566 L29.5612325,10.8994345 L28.5681001,10.8994345 L28.4651849,10.653572 C28.2172132,10.7988578 27.9363424,10.8832597 27.6470084,10.8994345 C26.9849202,10.8994345 26.4240319,10.0555281 26.7790896,9.12856015 C27.3108185,7.73644693 28.0946899,7.82116981 28.6092663,7.82116981 C29.0483714,7.82116981 29.1392799,8.06869352 29.3108054,8.18664106 Z M28.90429,9.43754948 C29.0140663,9.16012357 28.984907,8.81292589 28.8888528,8.68999465 C28.6247036,8.34611942 27.9557543,8.61856163 27.7173339,9.28803851 C27.5612457,9.72494278 27.8253949,10.0571894 28.1444323,10.0571894 C28.4634696,10.0571894 28.715612,9.81132689 28.90429,9.43754948 Z M22.1067362,7.91752132 L22.1153124,7.91419886 C22.5165901,7.84363941 22.9235904,7.80805741 23.3314279,7.80787995 C24.8751571,7.80787995 24.665896,8.81790958 24.5475434,9.23321782 L24.0878552,10.8944508 L23.2302279,10.8944508 L23.1204516,10.7283275 C22.9489262,10.8346464 22.8185668,10.8878059 22.3434413,10.9094019 C21.8683158,10.9309979 21.283414,10.6120412 21.4223496,9.98243389 C21.7465327,8.69996204 23.3966076,8.93585712 23.6333127,8.9142611 C23.7671026,8.45409957 23.4086144,8.49729162 23.089577,8.48566299 C22.7033123,8.49819068 22.3179931,8.53035212 21.9352107,8.5820145 L22.1067362,7.91752132 Z M23.4412042,9.53390099 C23.2885466,9.51230496 22.9489262,9.42758208 22.6436109,9.60865647 C22.3382955,9.78973087 22.2388108,10.1070264 22.5406956,10.2166677 C22.8425804,10.3263091 23.278255,10.1435735 23.352011,9.86448635 L23.4412042,9.53223976 L23.4412042,9.53390099 Z" id="Combined-Shape" fill="#8D8C9D"></path>
                </g>
            </g>
        </g>
    </g>
</svg>