<?xml version="1.0" encoding="UTF-8"?>
<svg width="95px" height="40px" viewBox="0 0 95 40" version="1.1" xmlns="http://www.w3.org/2000/svg" xmlns:xlink="http://www.w3.org/1999/xlink">
    <!-- Generator: sketchtool 56.2 (101010) - https://sketch.com -->
    <title>CF319FC3-5532-4803-93FE-7B90594090AB</title>
    <desc>Created with sketchtool.</desc>
    <g id="Anasayfa" stroke="none" stroke-width="1" fill="none" fill-rule="evenodd">
        <g id="Desktop---1360px---AlexMak" transform="translate(-575.000000, -3812.000000)">
            <g id="Group-17" transform="translate(575.000000, 3812.000000)">
                <path d="M0.5,0.5 L0.5,39.2821577 L94.5,39.2821577 L94.5,0.5 L0.5,0.5 Z" id="Rectangle-8-Copy-8" stroke="#8D8C9D" fill="#0D2255 "></path>
                <g id="Shape-2" transform="translate(21.000000, 14.000000)" fill="#8D8C9D">
                    <path d="M-3.55271368e-14,10.4518169 L0.775276963,5.29849742 C0.838749931,4.88120206 1.18218402,4.11782975 1.71830391,3.6994216 C2.29810507,3.23608321 3.02338337,2.98405116 3.77097435,2.98612473 C4.60065671,2.98612473 5.08803843,3.18531371 5.36686611,3.33665283 C5.53591192,3.42637969 5.69089907,3.53956449 5.82704513,3.6727147 C6.027821,3.50019182 6.25804317,3.36382272 6.50711264,3.26988557 C6.97435709,3.05852194 7.48576657,2.95825673 7.99986083,2.97722243 C8.7309334,2.97722243 9.41213436,3.20756947 9.70909717,3.49578146 C10.00606,3.78399346 10.1058032,3.95647554 10.2191478,4.45611718 C10.2543802,4.75080222 10.2482783,5.04883913 10.2010127,5.34189614 C10.1239384,5.86490632 9.44273739,10.4473658 9.44273739,10.4473658 L7.51587945,10.4473658 C7.51587945,10.4473658 8.19027973,5.93612473 8.22655,5.67573242 C8.26282026,5.41534012 8.33989458,4.86896139 8.15400946,4.63082484 C7.96812434,4.39268829 7.63602471,4.3292594 7.38326628,4.347064 C7.13050786,4.3648686 6.60685587,4.44053816 6.46744203,5.25954985 C6.32802819,6.07856155 5.67402994,10.4529297 5.67402994,10.4529297 L3.75283922,10.4529297 C3.75283922,10.4529297 4.45557565,5.7591915 4.48731213,5.51215264 C4.51904861,5.26511379 4.56438645,4.67867471 4.22661958,4.46613227 C3.88885272,4.25358984 3.27905885,4.30255249 3.03083421,4.63972714 C2.78260957,4.97690179 2.72820417,5.13936879 2.64319573,5.65347667 C2.55818729,6.16758456 1.92685795,10.4518169 1.92685795,10.4518169 L-3.55271368e-14,10.4518169 Z M14.7483974,6.8653024 C14.7483974,6.8653024 14.3244887,6.8920093 14.0173249,6.9187162 C13.5457387,6.95098575 13.0812558,7.04915874 12.6379213,7.21026656 C12.1255822,7.36967228 11.7831772,7.84348222 11.7991713,8.37090406 C11.7991713,8.81601911 12.0507963,9.31009682 12.863477,9.36239783 C13.6761577,9.41469885 14.432166,8.90281654 14.432166,8.90281654 L14.7483974,6.8653024 Z M11.5826832,3.6727147 C11.5826832,3.6727147 12.1494061,3.27433672 13.575281,3.06179429 C15.0011559,2.84925185 15.5021389,3.11520809 16.1368686,3.57478938 C16.7715983,4.03437067 16.7749986,4.83780334 16.6967908,5.34189614 C16.6185831,5.84598893 16.0745291,9.51373695 16.0745291,9.51373695 L15.5871474,9.88540802 C14.9830207,10.3193952 14.1533384,10.5530806 13.1513722,10.6465548 C12.1494061,10.7400289 10.8606782,10.4785238 10.3732964,9.39800704 C9.88591472,8.31749025 10.1749434,6.94987426 11.5282778,6.27218659 C12.8816121,5.59449893 14.9195478,5.63455928 14.9195478,5.63455928 C14.9195478,5.63455928 15.0725629,5.03254118 14.7393299,4.74432918 C14.3675596,4.41828241 13.9810546,4.52177165 13.1423047,4.65641896 C12.5333525,4.77121968 11.9381428,4.94760954 11.366195,5.18276751 L11.5826832,3.6727147 Z M19.2493109,1.52503457 C19.4125271,0.76277505 19.9951183,0.144065129 20.5493733,0.144065129 C21.1036283,0.144065129 21.4221266,0.76277505 21.2589104,1.52503457 C21.0956942,2.2872941 20.5153699,2.90711681 19.958848,2.90711681 C19.4023261,2.90711681 19.0860947,2.28840689 19.2493109,1.52503457 Z M16.4531,9.53710549 C16.4531,9.53710549 18.6950559,6.52033823 18.7392603,6.45468376 C18.7939569,6.3459652 18.7939569,6.21843817 18.7392603,6.1097196 C18.6769208,5.99844084 17.3145188,3.70943669 17.2465121,3.58035332 C17.1785053,3.45126996 17.0934969,3.19977995 17.215909,2.69568716 C17.3383212,2.19159436 17.6568195,2.04025525 17.8019006,2.01799949 C17.9469816,1.99574374 18.085262,2.04915755 18.2552789,2.30176034 C18.4252958,2.55436313 19.7820305,4.5629448 19.8353024,4.65196781 C19.8885744,4.74099082 19.989451,4.76324657 20.0619916,4.65975732 C20.1345321,4.55626807 22.9250758,0.795045891 23.0599559,0.61254872 C23.1948359,0.430051549 23.53827,0.0683955703 23.8681028,0.0194329147 C24.1979355,-0.0295297409 24.4450267,0.0105306136 24.6751162,0.179674333 C24.946967,0.390834107 25.0925986,0.721939541 25.0627547,1.06100213 C25.0219506,1.4237709 24.8190638,1.73757701 24.4960318,2.14040613 C24.1729997,2.54323525 21.2441756,6.04183955 21.1671013,6.12641141 C21.0993984,6.22160165 21.0766873,6.34078977 21.1047618,6.45357098 C21.1217635,6.56484974 21.3076486,6.80298629 21.3745219,6.89868603 C21.4413952,6.99438576 23.2005031,9.57048912 23.2005031,9.57048912 L24.1423967,3.20756947 L25.95591,3.20756947 L24.8825368,10.4607192 L23.8182311,10.4607192 L24.7612581,11.8383503 L22.9024069,13.2849742 C22.9024069,13.2849742 19.8897078,8.12609078 19.8421031,8.05487237 C19.7944984,7.98365396 19.7287585,7.8723752 19.5814105,8.05487237 C19.4340626,8.23736954 17.0878297,11.0783164 17.0878297,11.0783164 L16.4531,9.53710549 Z M25.5818729,10.4484786 L26.3571498,5.29515906 C26.4206228,4.8778637 26.7629235,4.11671696 27.3001768,3.69608324 C27.8812045,3.23297254 28.6078596,2.98205949 29.3562476,2.98612473 C30.1870634,2.98612473 30.6733117,3.18531371 30.9532728,3.33665283 C31.12072,3.42673854 31.2741601,3.5399085 31.408918,3.6727147 C31.6096939,3.50019182 31.8399161,3.36382272 32.0889855,3.26988557 C32.55623,3.05852194 33.0676395,2.95825673 33.5817337,2.97722243 C34.3128063,2.97722243 34.9928738,3.20756947 35.2909701,3.49578146 C35.5890663,3.78399346 35.6876761,3.95647554 35.8010207,4.45611718 C35.835961,4.75230254 35.8298604,5.05177037 35.7828856,5.34634729 C35.7035443,5.86935747 35.0234768,10.4518169 35.0234768,10.4518169 L33.0966189,10.4518169 C33.0966189,10.4518169 33.7766864,5.93612473 33.8084229,5.67573242 C33.8401594,5.41534012 33.9217675,4.86896139 33.7358823,4.63082484 C33.5499972,4.39268829 33.2178976,4.3292594 32.9651392,4.347064 C32.7123807,4.3648686 32.1887288,4.44053816 32.0493149,5.25954985 C31.9099011,6.07856155 31.2559028,10.4529297 31.2559028,10.4529297 L29.3347121,10.4529297 C29.3347121,10.4529297 30.0374485,5.7591915 30.069185,5.51215264 C30.1009215,5.26511379 30.1496597,4.67422356 29.8096259,4.46501949 C29.4695922,4.25581541 28.8631986,4.3014397 28.614974,4.63861436 C28.3667493,4.97578901 28.3123439,5.138256 28.2273355,5.65236388 C28.1423271,6.16647177 27.5098643,10.4518169 27.5098643,10.4518169 L25.5818729,10.4484786 Z M36.8256557,3.21535898 L38.7377789,3.21535898 C38.7377789,3.21535898 38.0293752,7.962511 37.9761033,8.31637746 C37.9228313,8.67024393 37.9579681,9.22886332 38.2912012,9.38799195 C38.6244343,9.54712058 39.1662214,9.52152646 39.3917771,9.32678863 C39.6173329,9.13205079 39.8247535,8.93620017 39.9414984,8.31637746 C40.0582433,7.69655476 40.7269764,3.20645668 40.7269764,3.20645668 L42.617564,3.20645668 C42.617564,3.20645668 41.9771671,7.58193763 41.9046266,8.11273733 C41.8320861,8.64353703 41.5713935,9.53933107 40.9978699,9.99001006 C40.4243463,10.440689 39.7839494,10.6732617 38.2821337,10.6732617 C36.7803179,10.6732617 36.1897926,9.78303156 36.0991169,9.2121715 C36.0084413,8.64131145 36.0719142,8.08714321 36.1988602,7.30819187 C36.3258061,6.52924053 36.8256557,3.21647177 36.8256557,3.21647177 L36.8256557,3.21535898 Z M42.251461,10.4484786 L43.026738,5.29515906 C43.090211,4.8778637 43.4325116,4.11671696 43.9697649,3.69608324 C44.5486824,3.23467029 45.272234,2.98386102 46.0179016,2.98612473 C46.8487174,2.98612473 47.3349657,3.18531371 47.6149268,3.33665283 C47.7851716,3.42610836 47.9413195,3.5393044 48.0785062,3.6727147 C48.279282,3.50019182 48.5095042,3.36382272 48.7585737,3.26988557 C49.2258181,3.05852194 49.7372276,2.95825673 50.2513219,2.97722243 C50.981261,2.97722243 51.6624619,3.20756947 51.9605582,3.49578146 C52.2586545,3.78399346 52.3572643,3.95647554 52.4706088,4.45611718 C52.5055491,4.75230254 52.4994486,5.05177037 52.4524737,5.34634729 C52.3753994,5.86935747 51.6941984,10.4518169 51.6941984,10.4518169 L49.7673405,10.4518169 C49.7673405,10.4518169 50.4383404,5.93612473 50.478011,5.67573242 C50.5176816,5.41534012 50.5913556,4.86896139 50.4054705,4.63082484 C50.2195854,4.39268829 49.8874857,4.3292594 49.6347273,4.347064 C49.3819689,4.3648686 48.8583169,4.44053816 48.7189031,5.25954985 C48.5794892,6.07856155 47.925491,10.4529297 47.925491,10.4529297 L46.0043003,10.4529297 C46.0043003,10.4529297 46.7070367,5.7591915 46.7387732,5.51215264 C46.7705096,5.26511379 46.8158475,4.67867471 46.4769472,4.46613227 C46.1380469,4.25358984 45.5305199,4.30255249 45.2822952,4.63972714 C45.0340706,4.97690179 44.9796652,5.13936879 44.8946568,5.65347667 C44.8096483,6.16758456 44.1771855,10.4529297 44.1771855,10.4529297 L42.251461,10.4484786 Z" id="Shape"></path>
                </g>
            </g>
        </g>
    </g>
</svg>