<?xml version="1.0" encoding="UTF-8"?>
<svg width="95px" height="40px" viewBox="0 0 95 40" version="1.1" xmlns="http://www.w3.org/2000/svg" xmlns:xlink="http://www.w3.org/1999/xlink">
    <!-- Generator: sketchtool 56.2 (101010) - https://sketch.com -->
    <title>110CD8EC-8289-4F21-8DC7-362520602FC5</title>
    <desc>Created with sketchtool.</desc>
    <g id="Anasayfa" stroke="none" stroke-width="1" fill="none" fill-rule="evenodd">
        <g id="Desktop---1360px---AlexMak" transform="translate(-175.000000, -3812.000000)">
            <g id="Group-14" transform="translate(175.000000, 3812.000000)">
                <path d="M0.5,0.5 L0.5,39.2821577 L94.5,39.2821577 L94.5,0.5 L0.5,0.5 Z" id="Rectangle-8-Copy-11" stroke="#8D8C9D" fill="#00007B"></path>
                <g id="Group-45" transform="translate(28.000000, 14.000000)">
                    <path d="M11.0695762,1.37373597 C11.0766682,1.59457524 11.0086376,1.81171569 10.875547,1.99303928 L6.47519222,8.25727213 L6.57574748,0.612033195 L-3.37507799e-14,0.612033195 L2.16689503,1.53897308 C2.7843893,1.88959816 3.09313644,2.34500775 3.06764356,2.91997916 L3.31265848,11.0165975 L6.51484781,11.0165975 L14.6994794,0.612033195 L10.755164,0.612033195 C10.9774043,0.807435406 11.0932242,1.08851838 11.0695762,1.37507936 L11.0695762,1.37373597 Z" id="Shape" fill="#8D8C9D"></path>
                    <path d="M37.4312122,0.919510964 L37.7101787,0.612033195 L33.7474594,0.612033195 C33.8785737,0.735561381 33.9218135,0.798668172 33.9190239,0.838949103 C33.8573454,0.973482089 33.7874826,1.10439837 33.709799,1.23101683 L27.41213,10.547996 C27.2726468,10.7104624 27.1178204,10.8541311 26.9490456,11.0165975 L30.1906365,11.0165975 L30.0511532,10.7104624 C30.0664964,10.4419229 30.2575884,9.95586634 30.643957,9.26169164 L31.4027459,8.11637052 L34.7419751,8.11637052 C34.8200857,9.07774206 34.8633255,9.87396179 34.8730893,10.4647488 L34.5620417,11.0165975 L38.5861335,11.0165975 L38.0379643,10.2418609 L37.4312122,0.919510964 Z M34.6680489,6.65417275 L32.2703318,6.65417275 L34.5397243,3.14301832 L34.6680489,6.65417275 Z" id="Shape" fill="#8D8C9D"></path>
                    <path d="M24.8501443,0.000704551901 C23.6416511,-0.0174971269 22.4554662,0.31734795 21.4458229,0.961701678 C20.3459431,1.51799524 19.7852482,2.22170659 19.7393601,3.09647822 C19.6863021,4.09780663 20.0261606,4.96840605 20.7431617,5.62761392 L22.9644313,7.05172543 C23.7646046,7.58159505 24.1403132,8.04749091 24.1116331,8.47166475 C24.0829531,8.89583859 23.8549467,9.23517766 23.437652,9.51054297 C23.0122371,9.78686185 22.508229,9.92693603 21.9964797,9.91107434 C21.1676264,9.91107434 19.7766442,9.38259545 17.8651192,8.40908172 L17.761871,10.3769702 C19.2561014,11.2002847 20.7202177,11.6286307 22.162824,11.6286307 C23.5337302,11.6286307 24.7096121,11.2906824 25.7478297,10.5299509 C26.8520115,9.83458397 27.4198764,9.00014363 27.4686325,8.09477586 C27.5116525,7.33126295 27.173228,6.6317238 26.3615827,5.88907189 L24.2464293,4.45939744 C23.5394662,3.92674636 23.1623236,3.45806903 23.1809656,3.09647822 C23.2282877,2.26203788 23.7975866,1.84481771 24.9146744,1.84481771 C25.6746956,1.84481771 26.7688394,2.22866026 28.2128797,3.03806739 L28.7864806,0.968655348 C27.5805326,0.326760874 26.2257614,-0.00637931082 24.8501443,0.000704551901 Z" id="Shape" fill="#8D8C9D"></path>
                    <path d="M15.7300449,11.0165975 C15.7056417,10.5880557 15.6351436,10.1998157 15.6120961,9.7914248 L18.8834791,1.37373597 L19.5993059,0.612033195 L15.4846572,0.612033195 C15.5199063,0.798764562 15.5537996,1.04594853 15.5890487,1.23133651 C15.5852409,1.43980453 15.5598,1.64733137 15.5131276,1.85063982 L12.2593692,10.1796648 L11.6370879,11.0165975 L15.7300449,11.0165975 Z" id="Shape" fill="#8D8C9D"></path>
                    <polygon id="Shape" fill="#D2D2D2" points="6.69953391 3.67219917 1.54543045e-13 0.612033195 6.73726141 0.612033195"></polygon>
                </g>
            </g>
        </g>
    </g>
</svg>